solid WirelessAP
facet normal 0.0 0.0 1.0
  outer loop
    vertex 95.33286499999998 11.999999999999998 3.9999999999999996
    vertex 94.332865 14.999999999999998 3.9999999999999996
    vertex 94.332865 11.999999999999998 3.9999999999999996
  endloop
endfacet
facet normal 0.0 0.0 1.0
  outer loop
    vertex 94.332865 14.999999999999998 3.9999999999999996
    vertex 95.33286499999998 11.999999999999998 3.9999999999999996
    vertex 95.33286499999998 15.0 3.9999999999999996
  endloop
endfacet
facet normal 0.0 -1.0 0.0
  outer loop
    vertex 120.332865 34.0 4.999999999999999
    vertex 95.332865 34.0 0.9999999999999996
    vertex 120.332865 34.0 0.9999999999999996
  endloop
endfacet
facet normal 0.0 -1.0 0.0
  outer loop
    vertex 95.332865 34.0 0.9999999999999996
    vertex 120.332865 34.0 4.999999999999999
    vertex 95.332865 34.0 4.999999999999999
  endloop
endfacet
facet normal -3.799439076938102e-16 0.9238795325112867 0.3826834323650902
  outer loop
    vertex 124.33286499999998 11.767949192431121 3.9999999999999996
    vertex 125.33286499999998 11.568148347421863 4.482361909794958
    vertex 125.33286499999998 11.767949192431121 3.999999999999999
  endloop
endfacet
facet normal -3.799439076938102e-16 0.9238795325112867 0.3826834323650902
  outer loop
    vertex 125.33286499999998 11.568148347421863 4.482361909794958
    vertex 124.33286499999998 11.767949192431121 3.9999999999999996
    vertex 124.33286499999998 11.568148347421863 4.482361909794958
  endloop
endfacet
facet normal 0.0 1.0 0.0
  outer loop
    vertex 94.332865 11.999999999999998 4.999999999999999
    vertex 95.33286499999998 11.999999999999998 3.9999999999999996
    vertex 94.332865 11.999999999999998 3.9999999999999996
  endloop
endfacet
facet normal 0.0 1.0 0.0
  outer loop
    vertex 95.33286499999998 11.999999999999998 3.9999999999999996
    vertex 94.332865 11.999999999999998 4.999999999999999
    vertex 95.33286499999998 11.999999999999998 4.999999999999999
  endloop
endfacet
facet normal 1.0 0.0 0.0
  outer loop
    vertex 70.332865 34.0 0.9999999999999996
    vertex 70.332865 29.999999999999996 4.999999999999999
    vertex 70.332865 29.999999999999996 0.9999999999999996
  endloop
endfacet
facet normal 1.0 0.0 0.0
  outer loop
    vertex 70.332865 29.999999999999996 4.999999999999999
    vertex 70.332865 34.0 0.9999999999999996
    vertex 70.332865 34.0 4.999999999999999
  endloop
endfacet
facet normal -1.0 0.0 0.0
  outer loop
    vertex 94.332865 11.999999999999998 4.999999999999999
    vertex 94.332865 4.999999999999999 0.9999999999999999
    vertex 94.332865 4.999999999999999 4.999999999999999
  endloop
endfacet
facet normal -1.0 0.0 0.0
  outer loop
    vertex 94.332865 4.999999999999999 0.9999999999999999
    vertex 94.332865 11.999999999999998 4.999999999999999
    vertex 94.332865 11.999999999999998 3.9999999999999996
  endloop
endfacet
facet normal -1.0 0.0 0.0
  outer loop
    vertex 94.332865 4.999999999999999 0.9999999999999999
    vertex 94.332865 11.999999999999998 3.9999999999999996
    vertex 94.332865 22.0 0.9999999999999999
  endloop
endfacet
facet normal -1.0 0.0 0.0
  outer loop
    vertex 94.332865 22.0 0.9999999999999999
    vertex 94.332865 11.999999999999998 3.9999999999999996
    vertex 94.332865 14.999999999999998 3.9999999999999996
  endloop
endfacet
facet normal -1.0 0.0 0.0
  outer loop
    vertex 94.332865 22.0 0.9999999999999999
    vertex 94.332865 14.999999999999998 3.9999999999999996
    vertex 94.332865 15.0 4.999999999999999
  endloop
endfacet
facet normal -1.0 0.0 0.0
  outer loop
    vertex 94.332865 22.0 0.9999999999999999
    vertex 94.332865 15.0 4.999999999999999
    vertex 94.332865 22.0 4.999999999999999
  endloop
endfacet
facet normal 5.287437154777302e-16 1.0 0.0
  outer loop
    vertex 120.332865 5.0 4.999999999999999
    vertex 124.33286499999998 4.999999999999998 0.9999999999999996
    vertex 120.332865 5.0 0.9999999999999996
  endloop
endfacet
facet normal 5.287437154777302e-16 1.0 0.0
  outer loop
    vertex 124.33286499999998 4.999999999999998 0.9999999999999996
    vertex 120.332865 5.0 4.999999999999999
    vertex 124.33286499999998 4.999999999999998 4.999999999999999
  endloop
endfacet
facet normal 1.0 -3.2010971068298543e-18 8.883044471452757e-16
  outer loop
    vertex 95.332865 34.0 0.9999999999999996
    vertex 95.332865 1.0 4.999999999999999
    vertex 95.332865 1.0 0.9999999999999996
  endloop
endfacet
facet normal 1.0 -3.2010971068298543e-18 8.883044471452757e-16
  outer loop
    vertex 95.332865 1.0 4.999999999999999
    vertex 95.332865 34.0 0.9999999999999996
    vertex 95.33286499999998 11.999999999999998 3.9999999999999996
  endloop
endfacet
facet normal 1.0 -3.2010971068298543e-18 8.883044471452757e-16
  outer loop
    vertex 95.33286499999998 11.999999999999998 3.9999999999999996
    vertex 95.332865 34.0 0.9999999999999996
    vertex 95.33286499999998 15.0 3.9999999999999996
  endloop
endfacet
facet normal 1.0 -3.2010971068298543e-18 8.883044471452757e-16
  outer loop
    vertex 95.33286499999998 15.0 3.9999999999999996
    vertex 95.332865 34.0 0.9999999999999996
    vertex 95.33286499999998 15.0 4.999999999999999
  endloop
endfacet
facet normal 1.0 -3.2010971068298543e-18 8.883044471452757e-16
  outer loop
    vertex 95.33286499999998 15.0 4.999999999999999
    vertex 95.332865 34.0 0.9999999999999996
    vertex 95.332865 34.0 4.999999999999999
  endloop
endfacet
facet normal 1.0 -3.2010971068298543e-18 8.883044471452757e-16
  outer loop
    vertex 95.33286499999998 11.999999999999998 4.999999999999999
    vertex 95.332865 1.0 4.999999999999999
    vertex 95.33286499999998 11.999999999999998 3.9999999999999996
  endloop
endfacet
facet normal 0.0 0.0 1.0
  outer loop
    vertex 66.33286499999998 23.0 0.9999999999999996
    vertex 70.332865 29.999999999999996 0.9999999999999996
    vertex 66.33286499999998 29.999999999999996 0.9999999999999996
  endloop
endfacet
facet normal 0.0 0.0 1.0
  outer loop
    vertex 70.332865 29.999999999999996 0.9999999999999996
    vertex 66.33286499999998 23.0 0.9999999999999996
    vertex 94.332865 22.999999999999996 0.9999999999999996
  endloop
endfacet
facet normal 0.0 0.0 1.0
  outer loop
    vertex 70.332865 29.999999999999996 0.9999999999999996
    vertex 94.332865 22.999999999999996 0.9999999999999996
    vertex 70.332865 34.0 0.9999999999999996
  endloop
endfacet
facet normal 0.0 0.0 1.0
  outer loop
    vertex 70.332865 34.0 0.9999999999999996
    vertex 94.332865 22.999999999999996 0.9999999999999996
    vertex 94.332865 34.0 0.9999999999999996
  endloop
endfacet
facet normal 0.0 0.6087614290087214 0.7933533402912347
  outer loop
    vertex 125.33286499999998 12.085786437626904 3.585786437626905
    vertex 124.33286499999998 12.499999999999998 3.2679491924311224
    vertex 124.33286499999998 12.085786437626904 3.585786437626905
  endloop
endfacet
facet normal 0.0 0.6087614290087214 0.7933533402912347
  outer loop
    vertex 124.33286499999998 12.499999999999998 3.2679491924311224
    vertex 125.33286499999998 12.085786437626904 3.585786437626905
    vertex 125.33286499999998 12.499999999999998 3.2679491924311224
  endloop
endfacet
facet normal -1.8488445724438692e-16 0.1305261922200518 0.9914448613738105
  outer loop
    vertex 125.33286499999998 12.982361909794959 3.0681483474218636
    vertex 124.33286499999998 13.499999999999998 3.0
    vertex 124.33286499999998 12.982361909794955 3.0681483474218636
  endloop
endfacet
facet normal -1.8488445724438692e-16 0.1305261922200518 0.9914448613738105
  outer loop
    vertex 124.33286499999998 13.499999999999998 3.0
    vertex 125.33286499999998 12.982361909794959 3.0681483474218636
    vertex 125.33286499999998 13.499999999999998 3.0
  endloop
endfacet
facet normal -3.5590191306015857e-16 0.7933533402912352 0.6087614290087208
  outer loop
    vertex 124.33286499999998 11.767949192431121 3.9999999999999996
    vertex 125.33286499999998 12.085786437626904 3.585786437626905
    vertex 124.33286499999998 12.085786437626904 3.585786437626905
  endloop
endfacet
facet normal -3.5590191306015857e-16 0.7933533402912352 0.6087614290087208
  outer loop
    vertex 125.33286499999998 12.085786437626904 3.585786437626905
    vertex 124.33286499999998 11.767949192431121 3.9999999999999996
    vertex 125.33286499999998 11.767949192431121 3.999999999999999
  endloop
endfacet
facet normal 4.565048327021897e-17 0.9914448613738105 0.1305261922200517
  outer loop
    vertex 124.33286499999998 11.568148347421863 4.482361909794958
    vertex 125.33286499999998 11.499999999999998 4.999999999999999
    vertex 125.33286499999998 11.568148347421863 4.482361909794958
  endloop
endfacet
facet normal 4.565048327021897e-17 0.9914448613738105 0.1305261922200517
  outer loop
    vertex 125.33286499999998 11.499999999999998 4.999999999999999
    vertex 124.33286499999998 11.568148347421863 4.482361909794958
    vertex 124.33286499999998 11.499999999999998 4.999999999999999
  endloop
endfacet
facet normal 1.0774155807750924e-15 -0.382683432365089 0.9238795325112871
  outer loop
    vertex 125.33286499999998 14.01763809020504 3.0681483474218636
    vertex 124.33286499999998 14.499999999999996 3.2679491924311224
    vertex 124.33286499999998 14.017638090205038 3.0681483474218636
  endloop
endfacet
facet normal 1.0774155807750924e-15 -0.382683432365089 0.9238795325112871
  outer loop
    vertex 124.33286499999998 14.499999999999996 3.2679491924311224
    vertex 125.33286499999998 14.01763809020504 3.0681483474218636
    vertex 125.33286499999998 14.499999999999998 3.2679491924311224
  endloop
endfacet
facet normal -0.0 -1.0 -0.0
  outer loop
    vertex 124.33286499999998 29.999999999999996 4.999999999999999
    vertex 120.332865 29.999999999999996 0.9999999999999996
    vertex 124.33286499999998 29.999999999999996 0.9999999999999996
  endloop
endfacet
facet normal -0.0 -1.0 -0.0
  outer loop
    vertex 120.332865 29.999999999999996 0.9999999999999996
    vertex 124.33286499999998 29.999999999999996 4.999999999999999
    vertex 120.332865 29.999999999999996 4.999999999999999
  endloop
endfacet
facet normal -1.0 0.0 0.0
  outer loop
    vertex 94.332865 34.0 4.999999999999999
    vertex 94.332865 22.999999999999996 0.9999999999999996
    vertex 94.332865 22.999999999999996 4.999999999999999
  endloop
endfacet
facet normal -1.0 0.0 0.0
  outer loop
    vertex 94.332865 22.999999999999996 0.9999999999999996
    vertex 94.332865 34.0 4.999999999999999
    vertex 94.332865 34.0 0.9999999999999996
  endloop
endfacet
facet normal 1.0071308866242489e-16 1.0 0.0
  outer loop
    vertex 66.33286499999998 23.0 4.999999999999999
    vertex 94.332865 22.999999999999996 0.9999999999999996
    vertex 66.33286499999998 23.0 0.9999999999999996
  endloop
endfacet
facet normal 1.0071308866242489e-16 1.0 0.0
  outer loop
    vertex 94.332865 22.999999999999996 0.9999999999999996
    vertex 66.33286499999998 23.0 4.999999999999999
    vertex 94.332865 22.999999999999996 4.999999999999999
  endloop
endfacet
facet normal -4.565048327021897e-17 -0.9914448613738105 0.1305261922200517
  outer loop
    vertex 125.33286499999998 15.431851652578134 4.482361909794958
    vertex 124.33286499999998 15.499999999999996 4.999999999999999
    vertex 124.33286499999998 15.431851652578134 4.482361909794958
  endloop
endfacet
facet normal -4.565048327021897e-17 -0.9914448613738105 0.1305261922200517
  outer loop
    vertex 124.33286499999998 15.499999999999996 4.999999999999999
    vertex 125.33286499999998 15.431851652578134 4.482361909794958
    vertex 125.33286499999998 15.499999999999996 4.999999999999999
  endloop
endfacet
facet normal 9.10839780661167e-16 -0.7933533402912357 0.60876142900872
  outer loop
    vertex 125.33286499999998 15.232050807568873 3.9999999999999996
    vertex 124.33286499999998 14.91421356237309 3.585786437626905
    vertex 125.33286499999998 14.914213562373094 3.585786437626905
  endloop
endfacet
facet normal 9.10839780661167e-16 -0.7933533402912357 0.60876142900872
  outer loop
    vertex 124.33286499999998 14.91421356237309 3.585786437626905
    vertex 125.33286499999998 15.232050807568873 3.9999999999999996
    vertex 124.33286499999998 15.232050807568873 3.999999999999999
  endloop
endfacet
facet normal -5.420538015079657e-16 0.382683432365089 0.9238795325112871
  outer loop
    vertex 125.33286499999998 12.499999999999998 3.2679491924311224
    vertex 124.33286499999998 12.982361909794955 3.0681483474218636
    vertex 124.33286499999998 12.499999999999998 3.2679491924311224
  endloop
endfacet
facet normal -5.420538015079657e-16 0.382683432365089 0.9238795325112871
  outer loop
    vertex 124.33286499999998 12.982361909794955 3.0681483474218636
    vertex 125.33286499999998 12.499999999999998 3.2679491924311224
    vertex 125.33286499999998 12.982361909794959 3.0681483474218636
  endloop
endfacet
facet normal 0.0 -1.0 0.0
  outer loop
    vertex 94.332865 34.0 4.999999999999999
    vertex 70.332865 34.0 0.9999999999999996
    vertex 94.332865 34.0 0.9999999999999996
  endloop
endfacet
facet normal 0.0 -1.0 0.0
  outer loop
    vertex 70.332865 34.0 0.9999999999999996
    vertex 94.332865 34.0 4.999999999999999
    vertex 70.332865 34.0 4.999999999999999
  endloop
endfacet
facet normal -1.0 0.0 0.0
  outer loop
    vertex 124.33286499999998 11.499999999999998 4.999999999999999
    vertex 124.33286499999998 4.999999999999998 0.9999999999999996
    vertex 124.33286499999998 4.999999999999998 4.999999999999999
  endloop
endfacet
facet normal -1.0 0.0 0.0
  outer loop
    vertex 124.33286499999998 4.999999999999998 0.9999999999999996
    vertex 124.33286499999998 11.499999999999998 4.999999999999999
    vertex 124.33286499999998 11.568148347421863 4.482361909794958
  endloop
endfacet
facet normal -1.0 0.0 0.0
  outer loop
    vertex 124.33286499999998 4.999999999999998 0.9999999999999996
    vertex 124.33286499999998 11.568148347421863 4.482361909794958
    vertex 124.33286499999998 11.767949192431121 3.9999999999999996
  endloop
endfacet
facet normal -1.0 0.0 0.0
  outer loop
    vertex 124.33286499999998 4.999999999999998 0.9999999999999996
    vertex 124.33286499999998 11.767949192431121 3.9999999999999996
    vertex 124.33286499999998 12.085786437626904 3.585786437626905
  endloop
endfacet
facet normal -1.0 0.0 0.0
  outer loop
    vertex 124.33286499999998 4.999999999999998 0.9999999999999996
    vertex 124.33286499999998 12.085786437626904 3.585786437626905
    vertex 124.33286499999998 12.499999999999998 3.2679491924311224
  endloop
endfacet
facet normal -1.0 0.0 0.0
  outer loop
    vertex 124.33286499999998 4.999999999999998 0.9999999999999996
    vertex 124.33286499999998 12.499999999999998 3.2679491924311224
    vertex 124.33286499999998 12.982361909794955 3.0681483474218636
  endloop
endfacet
facet normal -1.0 0.0 0.0
  outer loop
    vertex 124.33286499999998 4.999999999999998 0.9999999999999996
    vertex 124.33286499999998 12.982361909794955 3.0681483474218636
    vertex 124.33286499999998 13.499999999999998 3.0
  endloop
endfacet
facet normal -1.0 0.0 0.0
  outer loop
    vertex 124.33286499999998 4.999999999999998 0.9999999999999996
    vertex 124.33286499999998 13.499999999999998 3.0
    vertex 124.33286499999998 29.999999999999996 0.9999999999999996
  endloop
endfacet
facet normal -1.0 0.0 0.0
  outer loop
    vertex 124.33286499999998 29.999999999999996 0.9999999999999996
    vertex 124.33286499999998 13.499999999999998 3.0
    vertex 124.33286499999998 14.017638090205038 3.0681483474218636
  endloop
endfacet
facet normal -1.0 0.0 0.0
  outer loop
    vertex 124.33286499999998 29.999999999999996 0.9999999999999996
    vertex 124.33286499999998 14.017638090205038 3.0681483474218636
    vertex 124.33286499999998 14.499999999999996 3.2679491924311224
  endloop
endfacet
facet normal -1.0 0.0 0.0
  outer loop
    vertex 124.33286499999998 29.999999999999996 0.9999999999999996
    vertex 124.33286499999998 14.499999999999996 3.2679491924311224
    vertex 124.33286499999998 14.91421356237309 3.585786437626905
  endloop
endfacet
facet normal -1.0 0.0 0.0
  outer loop
    vertex 124.33286499999998 29.999999999999996 0.9999999999999996
    vertex 124.33286499999998 14.91421356237309 3.585786437626905
    vertex 124.33286499999998 15.232050807568873 3.999999999999999
  endloop
endfacet
facet normal -1.0 0.0 0.0
  outer loop
    vertex 124.33286499999998 29.999999999999996 0.9999999999999996
    vertex 124.33286499999998 15.232050807568873 3.999999999999999
    vertex 124.33286499999998 15.431851652578134 4.482361909794958
  endloop
endfacet
facet normal -1.0 0.0 0.0
  outer loop
    vertex 124.33286499999998 29.999999999999996 0.9999999999999996
    vertex 124.33286499999998 15.431851652578134 4.482361909794958
    vertex 124.33286499999998 15.499999999999996 4.999999999999999
  endloop
endfacet
facet normal -1.0 0.0 0.0
  outer loop
    vertex 124.33286499999998 29.999999999999996 0.9999999999999996
    vertex 124.33286499999998 15.499999999999996 4.999999999999999
    vertex 124.33286499999998 29.999999999999996 4.999999999999999
  endloop
endfacet
facet normal 0.0 0.0 1.0
  outer loop
    vertex 94.332865 1.0 0.9999999999999996
    vertex 70.332865 3.9999999999999996 0.9999999999999996
    vertex 70.332865 1.0000000000000009 0.9999999999999996
  endloop
endfacet
facet normal 0.0 0.0 1.0
  outer loop
    vertex 70.332865 3.9999999999999996 0.9999999999999996
    vertex 94.332865 1.0 0.9999999999999996
    vertex 94.33286499999998 3.9999999999999996 0.9999999999999996
  endloop
endfacet
facet normal -1.0 -1.8799776550319318e-15 0.0
  outer loop
    vertex 94.33286499999998 3.9999999999999996 4.999999999999999
    vertex 94.332865 1.0 0.9999999999999996
    vertex 94.332865 1.0 4.999999999999999
  endloop
endfacet
facet normal -1.0 -1.8799776550319318e-15 0.0
  outer loop
    vertex 94.332865 1.0 0.9999999999999996
    vertex 94.33286499999998 3.9999999999999996 4.999999999999999
    vertex 94.33286499999998 3.9999999999999996 0.9999999999999996
  endloop
endfacet
facet normal 2.819966482547897e-17 1.0 0.0
  outer loop
    vertex 95.332865 1.0 4.999999999999999
    vertex 120.332865 0.9999999999999994 0.9999999999999996
    vertex 95.332865 1.0 0.9999999999999996
  endloop
endfacet
facet normal 2.819966482547897e-17 1.0 0.0
  outer loop
    vertex 120.332865 0.9999999999999994 0.9999999999999996
    vertex 95.332865 1.0 4.999999999999999
    vertex 120.332865 0.9999999999999994 4.999999999999999
  endloop
endfacet
facet normal -2.743729118744041e-16 -0.9238795325112862 0.3826834323650913
  outer loop
    vertex 125.33286499999998 15.232050807568873 3.9999999999999996
    vertex 124.33286499999998 15.431851652578134 4.482361909794958
    vertex 124.33286499999998 15.232050807568873 3.999999999999999
  endloop
endfacet
facet normal -2.743729118744041e-16 -0.9238795325112862 0.3826834323650913
  outer loop
    vertex 124.33286499999998 15.431851652578134 4.482361909794958
    vertex 125.33286499999998 15.232050807568873 3.9999999999999996
    vertex 125.33286499999998 15.431851652578134 4.482361909794958
  endloop
endfacet
facet normal 1.0 -2.3499720687899157e-16 0.0
  outer loop
    vertex 70.332865 3.9999999999999996 0.9999999999999996
    vertex 70.332865 1.0000000000000009 4.999999999999999
    vertex 70.332865 1.0000000000000009 0.9999999999999996
  endloop
endfacet
facet normal 1.0 -2.3499720687899157e-16 0.0
  outer loop
    vertex 70.332865 1.0000000000000009 4.999999999999999
    vertex 70.332865 3.9999999999999996 0.9999999999999996
    vertex 70.332865 3.9999999999999996 4.999999999999999
  endloop
endfacet
facet normal -0.0 -1.0 -0.0
  outer loop
    vertex 70.332865 29.999999999999996 4.999999999999999
    vertex 66.33286499999998 29.999999999999996 0.9999999999999996
    vertex 70.332865 29.999999999999996 0.9999999999999996
  endloop
endfacet
facet normal -0.0 -1.0 -0.0
  outer loop
    vertex 66.33286499999998 29.999999999999996 0.9999999999999996
    vertex 70.332865 29.999999999999996 4.999999999999999
    vertex 66.33286499999998 29.999999999999996 4.999999999999999
  endloop
endfacet
facet normal 1.0 2.5178272165606244e-17 0.0
  outer loop
    vertex 66.33286499999998 29.999999999999996 0.9999999999999996
    vertex 66.33286499999998 23.0 4.999999999999999
    vertex 66.33286499999998 23.0 0.9999999999999996
  endloop
endfacet
facet normal 1.0 2.5178272165606244e-17 0.0
  outer loop
    vertex 66.33286499999998 23.0 4.999999999999999
    vertex 66.33286499999998 29.999999999999996 0.9999999999999996
    vertex 66.33286499999998 29.999999999999996 4.999999999999999
  endloop
endfacet
facet normal 0.0 0.0 1.0
  outer loop
    vertex 124.33286499999998 4.999999999999998 0.9999999999999996
    vertex 120.332865 29.999999999999996 0.9999999999999996
    vertex 120.332865 5.0 0.9999999999999996
  endloop
endfacet
facet normal 0.0 0.0 1.0
  outer loop
    vertex 120.332865 29.999999999999996 0.9999999999999996
    vertex 124.33286499999998 4.999999999999998 0.9999999999999996
    vertex 124.33286499999998 29.999999999999996 0.9999999999999996
  endloop
endfacet
facet normal 0.0 0.0 1.0
  outer loop
    vertex 120.332865 0.9999999999999994 0.9999999999999996
    vertex 95.332865 34.0 0.9999999999999996
    vertex 95.332865 1.0 0.9999999999999996
  endloop
endfacet
facet normal 0.0 0.0 1.0
  outer loop
    vertex 95.332865 34.0 0.9999999999999996
    vertex 120.332865 0.9999999999999994 0.9999999999999996
    vertex 120.332865 34.0 0.9999999999999996
  endloop
endfacet
facet normal 0.0 0.0 1.0
  outer loop
    vertex 120.332865 34.0 0.9999999999999996
    vertex 120.332865 0.9999999999999994 0.9999999999999996
    vertex 120.332865 5.0 0.9999999999999996
  endloop
endfacet
facet normal 0.0 0.0 1.0
  outer loop
    vertex 120.332865 34.0 0.9999999999999996
    vertex 120.332865 5.0 0.9999999999999996
    vertex 120.332865 29.999999999999996 0.9999999999999996
  endloop
endfacet
facet normal 2.9374650859873934e-17 1.0 0.0
  outer loop
    vertex 70.332865 1.0000000000000009 4.999999999999999
    vertex 94.332865 1.0 0.9999999999999996
    vertex 70.332865 1.0000000000000009 0.9999999999999996
  endloop
endfacet
facet normal 2.9374650859873934e-17 1.0 0.0
  outer loop
    vertex 94.332865 1.0 0.9999999999999996
    vertex 70.332865 1.0000000000000009 4.999999999999999
    vertex 94.332865 1.0 4.999999999999999
  endloop
endfacet
facet normal 1.82601933080876e-16 -0.1305261922200518 0.9914448613738105
  outer loop
    vertex 125.33286499999998 13.499999999999998 3.0
    vertex 124.33286499999998 14.017638090205038 3.0681483474218636
    vertex 124.33286499999998 13.499999999999998 3.0
  endloop
endfacet
facet normal 1.82601933080876e-16 -0.1305261922200518 0.9914448613738105
  outer loop
    vertex 124.33286499999998 14.017638090205038 3.0681483474218636
    vertex 125.33286499999998 13.499999999999998 3.0
    vertex 125.33286499999998 14.01763809020504 3.0681483474218636
  endloop
endfacet
facet normal 1.7139206799085388e-15 -0.6087614290087214 0.7933533402912347
  outer loop
    vertex 125.33286499999998 14.499999999999998 3.2679491924311224
    vertex 124.33286499999998 14.91421356237309 3.585786437626905
    vertex 124.33286499999998 14.499999999999996 3.2679491924311224
  endloop
endfacet
facet normal 1.7139206799085388e-15 -0.6087614290087214 0.7933533402912347
  outer loop
    vertex 124.33286499999998 14.91421356237309 3.585786437626905
    vertex 125.33286499999998 14.499999999999998 3.2679491924311224
    vertex 125.33286499999998 14.914213562373094 3.585786437626905
  endloop
endfacet
facet normal 0.0 0.0 1.0
  outer loop
    vertex 65.33286499999998 0.0 4.999999999999999
    vertex 66.33286499999998 5.0 4.999999999999999
    vertex 65.33286499999998 35.0 4.999999999999999
  endloop
endfacet
facet normal 0.0 0.0 1.0
  outer loop
    vertex 66.33286499999998 5.0 4.999999999999999
    vertex 65.33286499999998 0.0 4.999999999999999
    vertex 70.332865 1.0000000000000009 4.999999999999999
  endloop
endfacet
facet normal 0.0 0.0 1.0
  outer loop
    vertex 70.332865 1.0000000000000009 4.999999999999999
    vertex 65.33286499999998 0.0 4.999999999999999
    vertex 125.33286499999998 0.0 4.999999999999999
  endloop
endfacet
facet normal 0.0 0.0 1.0
  outer loop
    vertex 65.33286499999998 35.0 4.999999999999999
    vertex 66.33286499999998 5.0 4.999999999999999
    vertex 66.33286499999998 29.999999999999996 4.999999999999999
  endloop
endfacet
facet normal 0.0 0.0 1.0
  outer loop
    vertex 66.33286499999998 29.999999999999996 4.999999999999999
    vertex 66.33286499999998 5.0 4.999999999999999
    vertex 66.33286499999998 22.0 4.999999999999999
  endloop
endfacet
facet normal 0.0 0.0 1.0
  outer loop
    vertex 70.332865 1.0000000000000009 4.999999999999999
    vertex 125.33286499999998 0.0 4.999999999999999
    vertex 94.332865 1.0 4.999999999999999
  endloop
endfacet
facet normal 0.0 0.0 1.0
  outer loop
    vertex 94.332865 1.0 4.999999999999999
    vertex 125.33286499999998 0.0 4.999999999999999
    vertex 95.332865 1.0 4.999999999999999
  endloop
endfacet
facet normal 0.0 0.0 1.0
  outer loop
    vertex 94.332865 1.0 4.999999999999999
    vertex 95.332865 1.0 4.999999999999999
    vertex 94.332865 4.999999999999999 4.999999999999999
  endloop
endfacet
facet normal 0.0 0.0 1.0
  outer loop
    vertex 94.332865 4.999999999999999 4.999999999999999
    vertex 95.332865 1.0 4.999999999999999
    vertex 94.332865 11.999999999999998 4.999999999999999
  endloop
endfacet
facet normal 0.0 0.0 1.0
  outer loop
    vertex 94.332865 11.999999999999998 4.999999999999999
    vertex 95.332865 1.0 4.999999999999999
    vertex 95.33286499999998 11.999999999999998 4.999999999999999
  endloop
endfacet
facet normal 0.0 0.0 1.0
  outer loop
    vertex 95.332865 1.0 4.999999999999999
    vertex 125.33286499999998 0.0 4.999999999999999
    vertex 120.332865 0.9999999999999994 4.999999999999999
  endloop
endfacet
facet normal 0.0 0.0 1.0
  outer loop
    vertex 120.332865 0.9999999999999994 4.999999999999999
    vertex 125.33286499999998 0.0 4.999999999999999
    vertex 120.332865 5.0 4.999999999999999
  endloop
endfacet
facet normal 0.0 0.0 1.0
  outer loop
    vertex 120.332865 5.0 4.999999999999999
    vertex 125.33286499999998 0.0 4.999999999999999
    vertex 124.33286499999998 4.999999999999998 4.999999999999999
  endloop
endfacet
facet normal 0.0 0.0 1.0
  outer loop
    vertex 124.33286499999998 4.999999999999998 4.999999999999999
    vertex 125.33286499999998 0.0 4.999999999999999
    vertex 124.33286499999998 11.499999999999998 4.999999999999999
  endloop
endfacet
facet normal 0.0 0.0 1.0
  outer loop
    vertex 124.33286499999998 11.499999999999998 4.999999999999999
    vertex 125.33286499999998 0.0 4.999999999999999
    vertex 125.33286499999998 11.499999999999998 4.999999999999999
  endloop
endfacet
facet normal 0.0 0.0 1.0
  outer loop
    vertex 66.33286499999998 5.0 4.999999999999999
    vertex 70.332865 3.9999999999999996 4.999999999999999
    vertex 94.332865 4.999999999999999 4.999999999999999
  endloop
endfacet
facet normal 0.0 0.0 1.0
  outer loop
    vertex 70.332865 3.9999999999999996 4.999999999999999
    vertex 66.33286499999998 5.0 4.999999999999999
    vertex 70.332865 1.0000000000000009 4.999999999999999
  endloop
endfacet
facet normal 0.0 0.0 1.0
  outer loop
    vertex 94.332865 4.999999999999999 4.999999999999999
    vertex 70.332865 3.9999999999999996 4.999999999999999
    vertex 94.33286499999998 3.9999999999999996 4.999999999999999
  endloop
endfacet
facet normal 0.0 0.0 1.0
  outer loop
    vertex 94.332865 4.999999999999999 4.999999999999999
    vertex 94.33286499999998 3.9999999999999996 4.999999999999999
    vertex 94.332865 1.0 4.999999999999999
  endloop
endfacet
facet normal 0.0 0.0 1.0
  outer loop
    vertex 95.33286499999998 15.0 4.999999999999999
    vertex 94.332865 22.0 4.999999999999999
    vertex 94.332865 15.0 4.999999999999999
  endloop
endfacet
facet normal 0.0 0.0 1.0
  outer loop
    vertex 94.332865 22.0 4.999999999999999
    vertex 95.33286499999998 15.0 4.999999999999999
    vertex 94.332865 22.999999999999996 4.999999999999999
  endloop
endfacet
facet normal 0.0 0.0 1.0
  outer loop
    vertex 94.332865 22.999999999999996 4.999999999999999
    vertex 95.33286499999998 15.0 4.999999999999999
    vertex 94.332865 34.0 4.999999999999999
  endloop
endfacet
facet normal 0.0 0.0 1.0
  outer loop
    vertex 124.33286499999998 29.999999999999996 4.999999999999999
    vertex 120.332865 34.0 4.999999999999999
    vertex 120.332865 29.999999999999996 4.999999999999999
  endloop
endfacet
facet normal 0.0 0.0 1.0
  outer loop
    vertex 125.33286499999998 15.499999999999996 4.999999999999999
    vertex 124.33286499999998 29.999999999999996 4.999999999999999
    vertex 124.33286499999998 15.499999999999996 4.999999999999999
  endloop
endfacet
facet normal 0.0 0.0 1.0
  outer loop
    vertex 65.33286499999998 35.0 4.999999999999999
    vertex 70.332865 34.0 4.999999999999999
    vertex 125.33286499999998 35.0 4.999999999999999
  endloop
endfacet
facet normal 0.0 0.0 1.0
  outer loop
    vertex 70.332865 34.0 4.999999999999999
    vertex 65.33286499999998 35.0 4.999999999999999
    vertex 66.33286499999998 29.999999999999996 4.999999999999999
  endloop
endfacet
facet normal 0.0 0.0 1.0
  outer loop
    vertex 70.332865 34.0 4.999999999999999
    vertex 66.33286499999998 29.999999999999996 4.999999999999999
    vertex 70.332865 29.999999999999996 4.999999999999999
  endloop
endfacet
facet normal 0.0 0.0 1.0
  outer loop
    vertex 125.33286499999998 35.0 4.999999999999999
    vertex 70.332865 34.0 4.999999999999999
    vertex 94.332865 34.0 4.999999999999999
  endloop
endfacet
facet normal 0.0 0.0 1.0
  outer loop
    vertex 125.33286499999998 35.0 4.999999999999999
    vertex 94.332865 34.0 4.999999999999999
    vertex 95.332865 34.0 4.999999999999999
  endloop
endfacet
facet normal 0.0 0.0 1.0
  outer loop
    vertex 95.332865 34.0 4.999999999999999
    vertex 94.332865 34.0 4.999999999999999
    vertex 95.33286499999998 15.0 4.999999999999999
  endloop
endfacet
facet normal 0.0 0.0 1.0
  outer loop
    vertex 125.33286499999998 35.0 4.999999999999999
    vertex 95.332865 34.0 4.999999999999999
    vertex 120.332865 34.0 4.999999999999999
  endloop
endfacet
facet normal 0.0 0.0 1.0
  outer loop
    vertex 125.33286499999998 35.0 4.999999999999999
    vertex 120.332865 34.0 4.999999999999999
    vertex 124.33286499999998 29.999999999999996 4.999999999999999
  endloop
endfacet
facet normal 0.0 0.0 1.0
  outer loop
    vertex 125.33286499999998 35.0 4.999999999999999
    vertex 124.33286499999998 29.999999999999996 4.999999999999999
    vertex 125.33286499999998 15.499999999999996 4.999999999999999
  endloop
endfacet
facet normal 0.0 0.0 1.0
  outer loop
    vertex 66.33286499999998 22.0 4.999999999999999
    vertex 66.33286499999998 23.0 4.999999999999999
    vertex 66.33286499999998 29.999999999999996 4.999999999999999
  endloop
endfacet
facet normal 0.0 0.0 1.0
  outer loop
    vertex 66.33286499999998 23.0 4.999999999999999
    vertex 66.33286499999998 22.0 4.999999999999999
    vertex 94.332865 22.0 4.999999999999999
  endloop
endfacet
facet normal 0.0 0.0 1.0
  outer loop
    vertex 66.33286499999998 23.0 4.999999999999999
    vertex 94.332865 22.0 4.999999999999999
    vertex 94.332865 22.999999999999996 4.999999999999999
  endloop
endfacet
facet normal -1.0 0.0 0.0
  outer loop
    vertex 120.332865 34.0 4.999999999999999
    vertex 120.332865 29.999999999999996 0.9999999999999996
    vertex 120.332865 29.999999999999996 4.999999999999999
  endloop
endfacet
facet normal -1.0 0.0 0.0
  outer loop
    vertex 120.332865 29.999999999999996 0.9999999999999996
    vertex 120.332865 34.0 4.999999999999999
    vertex 120.332865 34.0 0.9999999999999996
  endloop
endfacet
facet normal 1.0 0.0 0.0
  outer loop
    vertex 91.33286499999998 15.0 0.9999999999999999
    vertex 91.33286499999998 12.0 4.0000000000000036
    vertex 91.33286499999998 12.0 0.9999999999999999
  endloop
endfacet
facet normal 1.0 0.0 0.0
  outer loop
    vertex 91.33286499999998 12.0 4.0000000000000036
    vertex 91.33286499999998 15.0 0.9999999999999999
    vertex 91.33286499999998 15.0 4.0000000000000036
  endloop
endfacet
facet normal 2.517827216560623e-17 1.0 1.564241655757938e-48
  outer loop
    vertex 66.33286499999998 5.0 4.999999999999999
    vertex 68.33286499999998 5.0 4.0000000000000036
    vertex 66.33286499999998 5.0 4.0000000000000036
  endloop
endfacet
facet normal 2.517827216560623e-17 1.0 1.564241655757938e-48
  outer loop
    vertex 68.33286499999998 5.0 4.0000000000000036
    vertex 94.332865 4.999999999999999 0.9999999999999999
    vertex 68.33286499999998 5.0 0.9999999999999999
  endloop
endfacet
facet normal 2.517827216560623e-17 1.0 1.564241655757938e-48
  outer loop
    vertex 94.332865 4.999999999999999 0.9999999999999999
    vertex 68.33286499999998 5.0 4.0000000000000036
    vertex 94.332865 4.999999999999999 4.999999999999999
  endloop
endfacet
facet normal 2.517827216560623e-17 1.0 1.564241655757938e-48
  outer loop
    vertex 94.332865 4.999999999999999 4.999999999999999
    vertex 68.33286499999998 5.0 4.0000000000000036
    vertex 66.33286499999998 5.0 4.999999999999999
  endloop
endfacet
facet normal 1.0 0.0 0.0
  outer loop
    vertex 68.33286499999998 7.0 0.9999999999999999
    vertex 68.33286499999998 5.0 4.0000000000000036
    vertex 68.33286499999998 5.0 0.9999999999999999
  endloop
endfacet
facet normal 1.0 0.0 0.0
  outer loop
    vertex 68.33286499999998 5.0 4.0000000000000036
    vertex 68.33286499999998 7.0 0.9999999999999999
    vertex 68.33286499999998 7.0 4.0000000000000036
  endloop
endfacet
facet normal -1.0 -0.0 -0.0
  outer loop
    vertex 86.33286499999998 15.0 4.0000000000000036
    vertex 86.33286499999998 12.0 0.9999999999999999
    vertex 86.33286499999998 12.0 4.0000000000000036
  endloop
endfacet
facet normal -1.0 -0.0 -0.0
  outer loop
    vertex 86.33286499999998 12.0 0.9999999999999999
    vertex 86.33286499999998 15.0 4.0000000000000036
    vertex 86.33286499999998 15.0 0.9999999999999999
  endloop
endfacet
facet normal 1.4099832412739592e-15 -1.0 1.4099832412739491e-15
  outer loop
    vertex 95.33286499999998 15.0 4.999999999999999
    vertex 94.332865 14.999999999999998 3.9999999999999996
    vertex 95.33286499999998 15.0 3.9999999999999996
  endloop
endfacet
facet normal 1.4099832412739592e-15 -1.0 1.4099832412739491e-15
  outer loop
    vertex 94.332865 14.999999999999998 3.9999999999999996
    vertex 95.33286499999998 15.0 4.999999999999999
    vertex 94.332865 15.0 4.999999999999999
  endloop
endfacet
facet normal 1.0 -1.7624790515924366e-16 0.0
  outer loop
    vertex 68.33286499999998 22.0 0.9999999999999999
    vertex 68.33286499999998 20.0 4.000000000000001
    vertex 68.33286499999998 20.0 0.9999999999999999
  endloop
endfacet
facet normal 1.0 -1.7624790515924366e-16 0.0
  outer loop
    vertex 68.33286499999998 20.0 4.000000000000001
    vertex 68.33286499999998 22.0 0.9999999999999999
    vertex 68.33286499999998 22.0 4.000000000000001
  endloop
endfacet
facet normal 0.0 -1.0 0.0
  outer loop
    vertex 91.33286499999998 12.0 4.0000000000000036
    vertex 86.33286499999998 12.0 0.9999999999999999
    vertex 91.33286499999998 12.0 0.9999999999999999
  endloop
endfacet
facet normal 0.0 -1.0 0.0
  outer loop
    vertex 86.33286499999998 12.0 0.9999999999999999
    vertex 91.33286499999998 12.0 4.0000000000000036
    vertex 86.33286499999998 12.0 4.0000000000000036
  endloop
endfacet
facet normal 0.0 -1.0 0.0
  outer loop
    vertex 68.33286499999998 20.0 4.000000000000001
    vertex 66.33286499999998 20.0 0.9999999999999999
    vertex 68.33286499999998 20.0 0.9999999999999999
  endloop
endfacet
facet normal 0.0 -1.0 0.0
  outer loop
    vertex 66.33286499999998 20.0 0.9999999999999999
    vertex 68.33286499999998 20.0 4.000000000000001
    vertex 66.33286499999998 20.0 4.000000000000001
  endloop
endfacet
facet normal -1.0 0.0 0.0
  outer loop
    vertex 65.33286499999998 35.0 4.999999999999999
    vertex 65.33286499999998 0.0 -1.2523166870383562e-30
    vertex 65.33286499999998 0.0 4.999999999999999
  endloop
endfacet
facet normal -1.0 0.0 0.0
  outer loop
    vertex 65.33286499999998 0.0 -1.2523166870383562e-30
    vertex 65.33286499999998 35.0 4.999999999999999
    vertex 65.33286499999998 35.0 -1.2523166870383562e-30
  endloop
endfacet
facet normal 0.0 0.0 1.0
  outer loop
    vertex 68.33286499999998 20.0 4.000000000000001
    vertex 66.33286499999998 22.0 4.000000000000001
    vertex 66.33286499999998 20.0 4.000000000000001
  endloop
endfacet
facet normal 0.0 0.0 1.0
  outer loop
    vertex 66.33286499999998 22.0 4.000000000000001
    vertex 68.33286499999998 20.0 4.000000000000001
    vertex 68.33286499999998 22.0 4.000000000000001
  endloop
endfacet
facet normal 0.0 0.0 1.0
  outer loop
    vertex 66.33286499999998 5.0 4.0000000000000036
    vertex 68.33286499999998 7.0 4.0000000000000036
    vertex 66.33286499999998 7.0 4.0000000000000036
  endloop
endfacet
facet normal 0.0 0.0 1.0
  outer loop
    vertex 68.33286499999998 7.0 4.0000000000000036
    vertex 66.33286499999998 5.0 4.0000000000000036
    vertex 68.33286499999998 5.0 4.0000000000000036
  endloop
endfacet
facet normal 0.0 -1.0 0.0
  outer loop
    vertex 94.332865 22.0 4.999999999999999
    vertex 68.33286499999998 22.0 0.9999999999999999
    vertex 94.332865 22.0 0.9999999999999999
  endloop
endfacet
facet normal 0.0 -1.0 0.0
  outer loop
    vertex 68.33286499999998 22.0 0.9999999999999999
    vertex 94.332865 22.0 4.999999999999999
    vertex 68.33286499999998 22.0 4.000000000000001
  endloop
endfacet
facet normal 0.0 -1.0 0.0
  outer loop
    vertex 68.33286499999998 22.0 4.000000000000001
    vertex 94.332865 22.0 4.999999999999999
    vertex 66.33286499999998 22.0 4.000000000000001
  endloop
endfacet
facet normal 0.0 -1.0 0.0
  outer loop
    vertex 66.33286499999998 22.0 4.000000000000001
    vertex 94.332865 22.0 4.999999999999999
    vertex 66.33286499999998 22.0 4.999999999999999
  endloop
endfacet
facet normal 0.0 0.0 1.0
  outer loop
    vertex 94.332865 4.999999999999999 0.9999999999999999
    vertex 68.33286499999998 7.0 0.9999999999999999
    vertex 68.33286499999998 5.0 0.9999999999999999
  endloop
endfacet
facet normal 0.0 0.0 1.0
  outer loop
    vertex 68.33286499999998 7.0 0.9999999999999999
    vertex 94.332865 4.999999999999999 0.9999999999999999
    vertex 68.33286499999998 20.0 0.9999999999999999
  endloop
endfacet
facet normal 0.0 0.0 1.0
  outer loop
    vertex 68.33286499999998 20.0 0.9999999999999999
    vertex 94.332865 4.999999999999999 0.9999999999999999
    vertex 68.33286499999998 22.0 0.9999999999999999
  endloop
endfacet
facet normal 0.0 0.0 1.0
  outer loop
    vertex 68.33286499999998 22.0 0.9999999999999999
    vertex 94.332865 4.999999999999999 0.9999999999999999
    vertex 86.33286499999998 12.0 0.9999999999999999
  endloop
endfacet
facet normal 0.0 0.0 1.0
  outer loop
    vertex 86.33286499999998 12.0 0.9999999999999999
    vertex 94.332865 4.999999999999999 0.9999999999999999
    vertex 91.33286499999998 12.0 0.9999999999999999
  endloop
endfacet
facet normal 0.0 0.0 1.0
  outer loop
    vertex 91.33286499999998 12.0 0.9999999999999999
    vertex 94.332865 4.999999999999999 0.9999999999999999
    vertex 91.33286499999998 15.0 0.9999999999999999
  endloop
endfacet
facet normal 0.0 0.0 1.0
  outer loop
    vertex 68.33286499999998 22.0 0.9999999999999999
    vertex 86.33286499999998 15.0 0.9999999999999999
    vertex 94.332865 22.0 0.9999999999999999
  endloop
endfacet
facet normal 0.0 0.0 1.0
  outer loop
    vertex 86.33286499999998 15.0 0.9999999999999999
    vertex 68.33286499999998 22.0 0.9999999999999999
    vertex 86.33286499999998 12.0 0.9999999999999999
  endloop
endfacet
facet normal 0.0 0.0 1.0
  outer loop
    vertex 94.332865 22.0 0.9999999999999999
    vertex 86.33286499999998 15.0 0.9999999999999999
    vertex 91.33286499999998 15.0 0.9999999999999999
  endloop
endfacet
facet normal 0.0 0.0 1.0
  outer loop
    vertex 94.332865 22.0 0.9999999999999999
    vertex 91.33286499999998 15.0 0.9999999999999999
    vertex 94.332865 4.999999999999999 0.9999999999999999
  endloop
endfacet
facet normal 0.0 0.0 1.0
  outer loop
    vertex 66.33286499999998 7.0 0.9999999999999999
    vertex 68.33286499999998 20.0 0.9999999999999999
    vertex 66.33286499999998 20.0 0.9999999999999999
  endloop
endfacet
facet normal 0.0 0.0 1.0
  outer loop
    vertex 68.33286499999998 20.0 0.9999999999999999
    vertex 66.33286499999998 7.0 0.9999999999999999
    vertex 68.33286499999998 7.0 0.9999999999999999
  endloop
endfacet
facet normal 0.0 1.0 0.0
  outer loop
    vertex 66.33286499999998 7.0 4.0000000000000036
    vertex 68.33286499999998 7.0 0.9999999999999999
    vertex 66.33286499999998 7.0 0.9999999999999999
  endloop
endfacet
facet normal 0.0 1.0 0.0
  outer loop
    vertex 68.33286499999998 7.0 0.9999999999999999
    vertex 66.33286499999998 7.0 4.0000000000000036
    vertex 68.33286499999998 7.0 4.0000000000000036
  endloop
endfacet
facet normal 0.0 -1.0 0.0
  outer loop
    vertex 125.33286499999998 0.0 4.999999999999999
    vertex 65.33286499999998 0.0 -1.2523166870383562e-30
    vertex 125.33286499999998 0.0 -1.2523166870383562e-30
  endloop
endfacet
facet normal 0.0 -1.0 0.0
  outer loop
    vertex 65.33286499999998 0.0 -1.2523166870383562e-30
    vertex 125.33286499999998 0.0 4.999999999999999
    vertex 65.33286499999998 0.0 4.999999999999999
  endloop
endfacet
facet normal 0.0 -1.0 0.0
  outer loop
    vertex 94.33286499999998 3.9999999999999996 4.999999999999999
    vertex 70.332865 3.9999999999999996 0.9999999999999996
    vertex 94.33286499999998 3.9999999999999996 0.9999999999999996
  endloop
endfacet
facet normal 0.0 -1.0 0.0
  outer loop
    vertex 70.332865 3.9999999999999996 0.9999999999999996
    vertex 94.33286499999998 3.9999999999999996 4.999999999999999
    vertex 70.332865 3.9999999999999996 4.999999999999999
  endloop
endfacet
facet normal 0.0 0.0 1.0
  outer loop
    vertex 91.33286499999998 12.0 4.0000000000000036
    vertex 86.33286499999998 15.0 4.0000000000000036
    vertex 86.33286499999998 12.0 4.0000000000000036
  endloop
endfacet
facet normal 0.0 0.0 1.0
  outer loop
    vertex 86.33286499999998 15.0 4.0000000000000036
    vertex 91.33286499999998 12.0 4.0000000000000036
    vertex 91.33286499999998 15.0 4.0000000000000036
  endloop
endfacet
facet normal 1.0 1.7910597929696102e-17 -3.545216483088222e-18
  outer loop
    vertex 66.33286499999998 20.0 0.9999999999999999
    vertex 66.33286499999998 7.0 4.0000000000000036
    vertex 66.33286499999998 7.0 0.9999999999999999
  endloop
endfacet
facet normal 1.0 1.7910597929696102e-17 -3.545216483088222e-18
  outer loop
    vertex 66.33286499999998 7.0 4.0000000000000036
    vertex 66.33286499999998 5.0 4.999999999999999
    vertex 66.33286499999998 5.0 4.0000000000000036
  endloop
endfacet
facet normal 1.0 1.7910597929696102e-17 -3.545216483088222e-18
  outer loop
    vertex 66.33286499999998 5.0 4.999999999999999
    vertex 66.33286499999998 7.0 4.0000000000000036
    vertex 66.33286499999998 22.0 4.999999999999999
  endloop
endfacet
facet normal 1.0 1.7910597929696102e-17 -3.545216483088222e-18
  outer loop
    vertex 66.33286499999998 22.0 4.999999999999999
    vertex 66.33286499999998 7.0 4.0000000000000036
    vertex 66.33286499999998 20.0 4.000000000000001
  endloop
endfacet
facet normal 1.0 1.7910597929696102e-17 -3.545216483088222e-18
  outer loop
    vertex 66.33286499999998 20.0 4.000000000000001
    vertex 66.33286499999998 7.0 4.0000000000000036
    vertex 66.33286499999998 20.0 0.9999999999999999
  endloop
endfacet
facet normal 1.0 1.7910597929696102e-17 -3.545216483088222e-18
  outer loop
    vertex 66.33286499999998 22.0 4.999999999999999
    vertex 66.33286499999998 20.0 4.000000000000001
    vertex 66.33286499999998 22.0 4.000000000000001
  endloop
endfacet
facet normal 1.0 0.0 0.0
  outer loop
    vertex 125.33286499999998 0.0 -1.2523166870383562e-30
    vertex 125.33286499999998 12.982361909794959 3.0681483474218636
    vertex 125.33286499999998 0.0 4.999999999999999
  endloop
endfacet
facet normal 1.0 0.0 0.0
  outer loop
    vertex 125.33286499999998 12.982361909794959 3.0681483474218636
    vertex 125.33286499999998 0.0 -1.2523166870383562e-30
    vertex 125.33286499999998 35.0 -1.2523166870383562e-30
  endloop
endfacet
facet normal 1.0 0.0 0.0
  outer loop
    vertex 125.33286499999998 0.0 4.999999999999999
    vertex 125.33286499999998 12.982361909794959 3.0681483474218636
    vertex 125.33286499999998 12.499999999999998 3.2679491924311224
  endloop
endfacet
facet normal 1.0 0.0 0.0
  outer loop
    vertex 125.33286499999998 0.0 4.999999999999999
    vertex 125.33286499999998 12.499999999999998 3.2679491924311224
    vertex 125.33286499999998 12.085786437626904 3.585786437626905
  endloop
endfacet
facet normal 1.0 0.0 0.0
  outer loop
    vertex 125.33286499999998 0.0 4.999999999999999
    vertex 125.33286499999998 12.085786437626904 3.585786437626905
    vertex 125.33286499999998 11.767949192431121 3.999999999999999
  endloop
endfacet
facet normal 1.0 0.0 0.0
  outer loop
    vertex 125.33286499999998 0.0 4.999999999999999
    vertex 125.33286499999998 11.767949192431121 3.999999999999999
    vertex 125.33286499999998 11.568148347421863 4.482361909794958
  endloop
endfacet
facet normal 1.0 0.0 0.0
  outer loop
    vertex 125.33286499999998 0.0 4.999999999999999
    vertex 125.33286499999998 11.568148347421863 4.482361909794958
    vertex 125.33286499999998 11.499999999999998 4.999999999999999
  endloop
endfacet
facet normal 1.0 0.0 0.0
  outer loop
    vertex 125.33286499999998 12.982361909794959 3.0681483474218636
    vertex 125.33286499999998 35.0 -1.2523166870383562e-30
    vertex 125.33286499999998 13.499999999999998 3.0
  endloop
endfacet
facet normal 1.0 0.0 0.0
  outer loop
    vertex 125.33286499999998 13.499999999999998 3.0
    vertex 125.33286499999998 35.0 -1.2523166870383562e-30
    vertex 125.33286499999998 14.01763809020504 3.0681483474218636
  endloop
endfacet
facet normal 1.0 0.0 0.0
  outer loop
    vertex 125.33286499999998 14.01763809020504 3.0681483474218636
    vertex 125.33286499999998 35.0 -1.2523166870383562e-30
    vertex 125.33286499999998 14.499999999999998 3.2679491924311224
  endloop
endfacet
facet normal 1.0 0.0 0.0
  outer loop
    vertex 125.33286499999998 14.499999999999998 3.2679491924311224
    vertex 125.33286499999998 35.0 -1.2523166870383562e-30
    vertex 125.33286499999998 14.914213562373094 3.585786437626905
  endloop
endfacet
facet normal 1.0 0.0 0.0
  outer loop
    vertex 125.33286499999998 14.914213562373094 3.585786437626905
    vertex 125.33286499999998 35.0 -1.2523166870383562e-30
    vertex 125.33286499999998 15.232050807568873 3.9999999999999996
  endloop
endfacet
facet normal 1.0 0.0 0.0
  outer loop
    vertex 125.33286499999998 15.232050807568873 3.9999999999999996
    vertex 125.33286499999998 35.0 -1.2523166870383562e-30
    vertex 125.33286499999998 15.431851652578134 4.482361909794958
  endloop
endfacet
facet normal 1.0 0.0 0.0
  outer loop
    vertex 125.33286499999998 15.431851652578134 4.482361909794958
    vertex 125.33286499999998 35.0 -1.2523166870383562e-30
    vertex 125.33286499999998 15.499999999999996 4.999999999999999
  endloop
endfacet
facet normal 1.0 0.0 0.0
  outer loop
    vertex 125.33286499999998 15.499999999999996 4.999999999999999
    vertex 125.33286499999998 35.0 -1.2523166870383562e-30
    vertex 125.33286499999998 35.0 4.999999999999999
  endloop
endfacet
facet normal 0.0 1.0 0.0
  outer loop
    vertex 65.33286499999998 35.0 4.999999999999999
    vertex 125.33286499999998 35.0 -1.2523166870383562e-30
    vertex 65.33286499999998 35.0 -1.2523166870383562e-30
  endloop
endfacet
facet normal 0.0 1.0 0.0
  outer loop
    vertex 125.33286499999998 35.0 -1.2523166870383562e-30
    vertex 65.33286499999998 35.0 4.999999999999999
    vertex 125.33286499999998 35.0 4.999999999999999
  endloop
endfacet
facet normal 0.0 1.0 0.0
  outer loop
    vertex 86.33286499999998 15.0 4.0000000000000036
    vertex 91.33286499999998 15.0 0.9999999999999999
    vertex 86.33286499999998 15.0 0.9999999999999999
  endloop
endfacet
facet normal 0.0 1.0 0.0
  outer loop
    vertex 91.33286499999998 15.0 0.9999999999999999
    vertex 86.33286499999998 15.0 4.0000000000000036
    vertex 91.33286499999998 15.0 4.0000000000000036
  endloop
endfacet
facet normal 0.0 0.0 -1.0
  outer loop
    vertex 125.33286499999998 35.0 -1.2523166870383562e-30
    vertex 65.33286499999998 0.0 -1.2523166870383562e-30
    vertex 65.33286499999998 35.0 -1.2523166870383562e-30
  endloop
endfacet
facet normal 0.0 0.0 -1.0
  outer loop
    vertex 65.33286499999998 0.0 -1.2523166870383562e-30
    vertex 125.33286499999998 35.0 -1.2523166870383562e-30
    vertex 125.33286499999998 0.0 -1.2523166870383562e-30
  endloop
endfacet
facet normal -1.0 0.0 0.0
  outer loop
    vertex 120.332865 5.0 4.999999999999999
    vertex 120.332865 0.9999999999999994 0.9999999999999996
    vertex 120.332865 0.9999999999999994 4.999999999999999
  endloop
endfacet
facet normal -1.0 0.0 0.0
  outer loop
    vertex 120.332865 0.9999999999999994 0.9999999999999996
    vertex 120.332865 5.0 4.999999999999999
    vertex 120.332865 5.0 0.9999999999999996
  endloop
endfacet
facet normal -1.0 -7.553481649681874e-17 2.498001805406602e-16
  outer loop
    vertex 59.00000000000001 29.999999999999996 8.999999999999986
    vertex 59.00000000000001 23.0 0.9999999999999855
    vertex 59.00000000000001 23.0 8.999999999999986
  endloop
endfacet
facet normal -1.0 -7.553481649681874e-17 2.498001805406602e-16
  outer loop
    vertex 59.00000000000001 23.0 0.9999999999999855
    vertex 59.00000000000001 29.999999999999996 8.999999999999986
    vertex 59.00000000000001 29.999999999999996 0.9999999999999855
  endloop
endfacet
facet normal 0.0 1.0 0.0
  outer loop
    vertex 59.00000000000001 23.0 0.9999999999999855
    vertex 57.0 23.0 8.999999999999986
    vertex 59.00000000000001 23.0 8.999999999999986
  endloop
endfacet
facet normal 0.0 1.0 0.0
  outer loop
    vertex 57.0 23.0 8.999999999999986
    vertex 59.00000000000001 23.0 0.9999999999999855
    vertex 57.0 23.0 0.9999999999999869
  endloop
endfacet
facet normal -1.0 0.0 2.498001805406602e-16
  outer loop
    vertex 59.00000000000001 17.5 8.999999999999986
    vertex 59.00000000000001 4.999999999999999 0.9999999999999855
    vertex 59.00000000000001 4.999999999999999 8.999999999999986
  endloop
endfacet
facet normal -1.0 0.0 2.498001805406602e-16
  outer loop
    vertex 59.00000000000001 4.999999999999999 0.9999999999999855
    vertex 59.00000000000001 17.5 8.999999999999986
    vertex 59.00000000000001 22.0 0.9999999999999855
  endloop
endfacet
facet normal -1.0 0.0 2.498001805406602e-16
  outer loop
    vertex 59.00000000000001 22.0 0.9999999999999855
    vertex 59.00000000000001 17.5 8.999999999999986
    vertex 59.00000000000001 22.0 8.999999999999986
  endloop
endfacet
facet normal 1.0 -0.0 -2.498001805406602e-16
  outer loop
    vertex 57.0 29.999999999999996 0.9999999999999869
    vertex 57.0 23.0 8.999999999999986
    vertex 57.0 23.0 0.9999999999999869
  endloop
endfacet
facet normal 1.0 -0.0 -2.498001805406602e-16
  outer loop
    vertex 57.0 23.0 8.999999999999986
    vertex 57.0 29.999999999999996 0.9999999999999869
    vertex 57.0 29.999999999999996 8.999999999999986
  endloop
endfacet
facet normal 0.0 1.0 0.0
  outer loop
    vertex 57.0 6.999999999999998 0.9999999999999869
    vertex 55.0 6.999999999999998 8.999999999999986
    vertex 57.00000000000001 6.999999999999998 8.999999999999986
  endloop
endfacet
facet normal 0.0 1.0 0.0
  outer loop
    vertex 55.0 6.999999999999998 8.999999999999986
    vertex 57.0 6.999999999999998 0.9999999999999869
    vertex 55.0 6.999999999999998 0.9999999999999869
  endloop
endfacet
facet normal 0.0 -1.0 0.0
  outer loop
    vertex 57.0 29.999999999999996 0.9999999999999869
    vertex 59.00000000000001 29.999999999999996 8.999999999999986
    vertex 57.0 29.999999999999996 8.999999999999986
  endloop
endfacet
facet normal 0.0 -1.0 0.0
  outer loop
    vertex 59.00000000000001 29.999999999999996 8.999999999999986
    vertex 57.0 29.999999999999996 0.9999999999999869
    vertex 59.00000000000001 29.999999999999996 0.9999999999999855
  endloop
endfacet
facet normal 0.0 -1.0 0.0
  outer loop
    vertex 57.0 22.0 0.9999999999999869
    vertex 59.00000000000001 22.0 8.999999999999986
    vertex 57.0 22.0 8.999999999999986
  endloop
endfacet
facet normal 0.0 -1.0 0.0
  outer loop
    vertex 59.00000000000001 22.0 8.999999999999986
    vertex 57.0 22.0 0.9999999999999869
    vertex 59.00000000000001 22.0 0.9999999999999855
  endloop
endfacet
facet normal 0.0 1.0 0.0
  outer loop
    vertex 59.00000000000001 4.999999999999999 0.9999999999999855
    vertex 57.00000000000001 4.999999999999999 8.999999999999986
    vertex 59.00000000000001 4.999999999999999 8.999999999999986
  endloop
endfacet
facet normal 0.0 1.0 0.0
  outer loop
    vertex 57.00000000000001 4.999999999999999 8.999999999999986
    vertex 59.00000000000001 4.999999999999999 0.9999999999999855
    vertex 57.0 4.999999999999999 0.9999999999999869
  endloop
endfacet
facet normal 1.0 -0.0 -2.498001805406602e-16
  outer loop
    vertex 57.0 6.999999999999998 0.9999999999999869
    vertex 57.00000000000001 4.999999999999999 8.999999999999986
    vertex 57.0 4.999999999999999 0.9999999999999869
  endloop
endfacet
facet normal 1.0 -0.0 -2.498001805406602e-16
  outer loop
    vertex 57.00000000000001 4.999999999999999 8.999999999999986
    vertex 57.0 6.999999999999998 0.9999999999999869
    vertex 57.00000000000001 6.999999999999998 8.999999999999986
  endloop
endfacet
facet normal 1.0 7.049916206369747e-16 -2.498001805406602e-16
  outer loop
    vertex 57.0 22.0 0.9999999999999869
    vertex 57.00000000000001 20.0 8.999999999999986
    vertex 57.0 20.0 0.9999999999999869
  endloop
endfacet
facet normal 1.0 7.049916206369747e-16 -2.498001805406602e-16
  outer loop
    vertex 57.00000000000001 20.0 8.999999999999986
    vertex 57.0 22.0 0.9999999999999869
    vertex 57.0 22.0 8.999999999999986
  endloop
endfacet
facet normal -1.0 4.69994413757983e-16 2.498001805406602e-16
  outer loop
    vertex 55.0 6.999999999999998 8.999999999999986
    vertex 55.0 0.9999999999999994 0.9999999999999869
    vertex 55.0 0.9999999999999994 8.999999999999986
  endloop
endfacet
facet normal -1.0 4.69994413757983e-16 2.498001805406602e-16
  outer loop
    vertex 55.0 0.9999999999999994 0.9999999999999869
    vertex 55.0 6.999999999999998 8.999999999999986
    vertex 55.0 6.999999999999998 0.9999999999999869
  endloop
endfacet
facet normal 7.343662714968487e-18 1.0 -1.834448272028843e-33
  outer loop
    vertex 55.0 0.9999999999999994 0.9999999999999869
    vertex 31.00000000000001 0.9999999999999996 8.999999999999991
    vertex 55.0 0.9999999999999994 8.999999999999986
  endloop
endfacet
facet normal 7.343662714968487e-18 1.0 -1.834448272028843e-33
  outer loop
    vertex 31.00000000000001 0.9999999999999996 8.999999999999991
    vertex 55.0 0.9999999999999994 0.9999999999999869
    vertex 31.00000000000001 0.9999999999999996 0.9999999999999926
  endloop
endfacet
facet normal 0.0 -1.0 0.0
  outer loop
    vertex 0.0 0.0 0.0
    vertex 60.0 0.0 8.999999999999986
    vertex 0.0 0.0 9.0
  endloop
endfacet
facet normal 0.0 -1.0 0.0
  outer loop
    vertex 60.0 0.0 8.999999999999986
    vertex 0.0 0.0 0.0
    vertex 60.0 0.0 -1.5509815654013436e-14
  endloop
endfacet
facet normal 0.0 1.0 0.0
  outer loop
    vertex 60.0 35.0 -1.5509815654013436e-14
    vertex 0.0 35.0 9.0
    vertex 60.0 35.0 8.999999999999986
  endloop
endfacet
facet normal 0.0 1.0 0.0
  outer loop
    vertex 0.0 35.0 9.0
    vertex 60.0 35.0 -1.5509815654013436e-14
    vertex 0.0 35.0 0.0
  endloop
endfacet
facet normal 1.0 1.709070595483574e-16 -3.67298783980156e-16
  outer loop
    vertex 31.000000000000004 34.0 0.9999999999999926
    vertex 31.00000000000001 0.9999999999999996 8.999999999999991
    vertex 31.00000000000001 0.9999999999999996 0.9999999999999926
  endloop
endfacet
facet normal 1.0 1.709070595483574e-16 -3.67298783980156e-16
  outer loop
    vertex 31.00000000000001 0.9999999999999996 8.999999999999991
    vertex 31.000000000000004 34.0 0.9999999999999926
    vertex 31.00000000000001 17.5 8.999999999999991
  endloop
endfacet
facet normal 1.0 1.709070595483574e-16 -3.67298783980156e-16
  outer loop
    vertex 31.00000000000001 17.5 8.999999999999991
    vertex 31.000000000000004 34.0 0.9999999999999926
    vertex 31.000000000000004 34.0 8.999999999999991
  endloop
endfacet
facet normal -1.0 0.0 2.498001805406602e-16
  outer loop
    vertex 55.0 34.0 8.999999999999986
    vertex 55.0 20.0 0.9999999999999869
    vertex 55.0 20.0 8.999999999999986
  endloop
endfacet
facet normal -1.0 0.0 2.498001805406602e-16
  outer loop
    vertex 55.0 20.0 0.9999999999999869
    vertex 55.0 34.0 8.999999999999986
    vertex 55.0 34.0 0.9999999999999869
  endloop
endfacet
facet normal 0.0 -1.0 0.0
  outer loop
    vertex 55.0 20.0 0.9999999999999869
    vertex 57.00000000000001 20.0 8.999999999999986
    vertex 55.0 20.0 8.999999999999986
  endloop
endfacet
facet normal 0.0 -1.0 0.0
  outer loop
    vertex 57.00000000000001 20.0 8.999999999999986
    vertex 55.0 20.0 0.9999999999999869
    vertex 57.0 20.0 0.9999999999999869
  endloop
endfacet
facet normal -1.0 0.0 2.498001805406602e-16
  outer loop
    vertex 0.0 11.499999999999998 9.0
    vertex 0.0 0.0 0.0
    vertex 0.0 0.0 9.0
  endloop
endfacet
facet normal -1.0 0.0 2.498001805406602e-16
  outer loop
    vertex 0.0 0.0 0.0
    vertex 0.0 11.499999999999998 9.0
    vertex 0.0 11.56814834742186 8.482361909794959
  endloop
endfacet
facet normal -1.0 0.0 2.498001805406602e-16
  outer loop
    vertex 0.0 0.0 0.0
    vertex 0.0 11.56814834742186 8.482361909794959
    vertex 0.0 11.76794919243112 7.999999999999998
  endloop
endfacet
facet normal -1.0 0.0 2.498001805406602e-16
  outer loop
    vertex 0.0 0.0 0.0
    vertex 0.0 11.76794919243112 7.999999999999998
    vertex 0.0 12.085786437626902 7.585786437626905
  endloop
endfacet
facet normal -1.0 0.0 2.498001805406602e-16
  outer loop
    vertex 0.0 0.0 0.0
    vertex 0.0 12.085786437626902 7.585786437626905
    vertex 0.0 12.499999999999996 7.267949192431122
  endloop
endfacet
facet normal -1.0 0.0 2.498001805406602e-16
  outer loop
    vertex 0.0 0.0 0.0
    vertex 0.0 12.499999999999996 7.267949192431122
    vertex 0.0 12.982361909794955 7.068148347421862
  endloop
endfacet
facet normal -1.0 0.0 2.498001805406602e-16
  outer loop
    vertex 0.0 0.0 0.0
    vertex 0.0 12.982361909794955 7.068148347421862
    vertex 0.0 35.0 0.0
  endloop
endfacet
facet normal -1.0 0.0 2.498001805406602e-16
  outer loop
    vertex 0.0 35.0 0.0
    vertex 0.0 12.982361909794955 7.068148347421862
    vertex 0.0 13.499999999999998 6.999999999999998
  endloop
endfacet
facet normal -1.0 0.0 2.498001805406602e-16
  outer loop
    vertex 0.0 35.0 0.0
    vertex 0.0 13.499999999999998 6.999999999999998
    vertex 0.0 14.01763809020504 7.068148347421862
  endloop
endfacet
facet normal -1.0 0.0 2.498001805406602e-16
  outer loop
    vertex 0.0 35.0 0.0
    vertex 0.0 14.01763809020504 7.068148347421862
    vertex 0.0 14.499999999999998 7.267949192431122
  endloop
endfacet
facet normal -1.0 0.0 2.498001805406602e-16
  outer loop
    vertex 0.0 35.0 0.0
    vertex 0.0 14.499999999999998 7.267949192431122
    vertex 0.0 14.914213562373094 7.585786437626905
  endloop
endfacet
facet normal -1.0 0.0 2.498001805406602e-16
  outer loop
    vertex 0.0 35.0 0.0
    vertex 0.0 14.914213562373094 7.585786437626905
    vertex 0.0 15.232050807568877 7.999999999999999
  endloop
endfacet
facet normal -1.0 0.0 2.498001805406602e-16
  outer loop
    vertex 0.0 35.0 0.0
    vertex 0.0 15.232050807568877 7.999999999999999
    vertex 0.0 15.431851652578136 8.482361909794959
  endloop
endfacet
facet normal -1.0 0.0 2.498001805406602e-16
  outer loop
    vertex 0.0 35.0 0.0
    vertex 0.0 15.431851652578136 8.482361909794959
    vertex 0.0 15.5 9.0
  endloop
endfacet
facet normal -1.0 0.0 2.498001805406602e-16
  outer loop
    vertex 0.0 35.0 0.0
    vertex 0.0 15.5 9.0
    vertex 0.0 35.0 9.0
  endloop
endfacet
facet normal 1.0 -0.0 -2.498001805406602e-16
  outer loop
    vertex 60.0 35.0 -1.5509815654013436e-14
    vertex 60.0 0.0 8.999999999999986
    vertex 60.0 0.0 -1.5509815654013436e-14
  endloop
endfacet
facet normal 1.0 -0.0 -2.498001805406602e-16
  outer loop
    vertex 60.0 0.0 8.999999999999986
    vertex 60.0 35.0 -1.5509815654013436e-14
    vertex 60.0 17.5 8.999999999999986
  endloop
endfacet
facet normal 1.0 -0.0 -2.498001805406602e-16
  outer loop
    vertex 60.0 17.5 8.999999999999986
    vertex 60.0 35.0 -1.5509815654013436e-14
    vertex 60.0 35.0 8.999999999999986
  endloop
endfacet
facet normal 0.0 -1.0 0.0
  outer loop
    vertex 31.000000000000004 34.0 0.9999999999999926
    vertex 55.0 34.0 8.999999999999986
    vertex 31.000000000000004 34.0 8.999999999999991
  endloop
endfacet
facet normal 0.0 -1.0 0.0
  outer loop
    vertex 55.0 34.0 8.999999999999986
    vertex 31.000000000000004 34.0 0.9999999999999926
    vertex 55.0 34.0 0.9999999999999869
  endloop
endfacet
facet normal 0.0 -1.0 0.0
  outer loop
    vertex 0.9999999999999981 29.999999999999996 0.9999999999999996
    vertex 5.000000000000002 29.999999999999996 8.999999999999998
    vertex 0.9999999999999981 29.999999999999996 8.999999999999998
  endloop
endfacet
facet normal 0.0 -1.0 0.0
  outer loop
    vertex 5.000000000000002 29.999999999999996 8.999999999999998
    vertex 0.9999999999999981 29.999999999999996 0.9999999999999996
    vertex 5.000000000000002 29.999999999999996 0.9999999999999996
  endloop
endfacet
facet normal 1.0 -0.0 -2.498001805406602e-16
  outer loop
    vertex 5.000000000000002 5.0 0.9999999999999996
    vertex 5.000000000000002 0.9999999999999994 8.999999999999998
    vertex 5.000000000000002 0.9999999999999994 0.9999999999999996
  endloop
endfacet
facet normal 1.0 -0.0 -2.498001805406602e-16
  outer loop
    vertex 5.000000000000002 0.9999999999999994 8.999999999999998
    vertex 5.000000000000002 5.0 0.9999999999999996
    vertex 5.000000000000002 5.0 8.999999999999998
  endloop
endfacet
facet normal -1.0 -3.4181411909671484e-16 2.498001805406602e-16
  outer loop
    vertex 30.000000000000007 17.5 8.999999999999991
    vertex 30.000000000000014 0.9999999999999996 0.9999999999999926
    vertex 30.000000000000014 0.9999999999999996 8.999999999999991
  endloop
endfacet
facet normal -1.0 -3.4181411909671484e-16 2.498001805406602e-16
  outer loop
    vertex 30.000000000000014 0.9999999999999996 0.9999999999999926
    vertex 30.000000000000007 17.5 8.999999999999991
    vertex 30.0 34.0 0.9999999999999926
  endloop
endfacet
facet normal -1.0 -3.4181411909671484e-16 2.498001805406602e-16
  outer loop
    vertex 30.0 34.0 0.9999999999999926
    vertex 30.000000000000007 17.5 8.999999999999991
    vertex 30.0 34.0 8.999999999999991
  endloop
endfacet
facet normal -1.7624790515924342e-16 1.0 4.4026758528692167e-32
  outer loop
    vertex 5.000000000000002 5.0 0.9999999999999996
    vertex 0.9999999999999981 4.999999999999999 8.999999999999998
    vertex 5.000000000000002 5.0 8.999999999999998
  endloop
endfacet
facet normal -1.7624790515924342e-16 1.0 4.4026758528692167e-32
  outer loop
    vertex 0.9999999999999981 4.999999999999999 8.999999999999998
    vertex 5.000000000000002 5.0 0.9999999999999996
    vertex 0.9999999999999981 4.999999999999999 0.9999999999999996
  endloop
endfacet
facet normal 1.0 -0.0 -2.498001805406602e-16
  outer loop
    vertex 5.000000000000002 34.0 0.9999999999999996
    vertex 5.000000000000002 29.999999999999996 8.999999999999998
    vertex 5.000000000000002 29.999999999999996 0.9999999999999996
  endloop
endfacet
facet normal 1.0 -0.0 -2.498001805406602e-16
  outer loop
    vertex 5.000000000000002 29.999999999999996 8.999999999999998
    vertex 5.000000000000002 34.0 0.9999999999999996
    vertex 5.000000000000002 34.0 8.999999999999998
  endloop
endfacet
facet normal -7.049916206369741e-18 1.0 1.7610703411476878e-33
  outer loop
    vertex 30.000000000000014 0.9999999999999996 0.9999999999999926
    vertex 5.000000000000002 0.9999999999999994 8.999999999999998
    vertex 30.000000000000014 0.9999999999999996 8.999999999999991
  endloop
endfacet
facet normal -7.049916206369741e-18 1.0 1.7610703411476878e-33
  outer loop
    vertex 5.000000000000002 0.9999999999999994 8.999999999999998
    vertex 30.000000000000014 0.9999999999999996 0.9999999999999926
    vertex 5.000000000000002 0.9999999999999994 0.9999999999999996
  endloop
endfacet
facet normal 1.0 -0.0 -2.498001805406602e-16
  outer loop
    vertex 0.9999999999999981 29.999999999999996 0.9999999999999996
    vertex 0.9999999999999981 4.999999999999999 8.999999999999998
    vertex 0.9999999999999981 4.999999999999999 0.9999999999999996
  endloop
endfacet
facet normal 1.0 -0.0 -2.498001805406602e-16
  outer loop
    vertex 0.9999999999999981 4.999999999999999 8.999999999999998
    vertex 0.9999999999999981 29.999999999999996 0.9999999999999996
    vertex 0.9999999999999981 12.982361909794959 7.0681483474218645
  endloop
endfacet
facet normal 1.0 -0.0 -2.498001805406602e-16
  outer loop
    vertex 0.9999999999999981 4.999999999999999 8.999999999999998
    vertex 0.9999999999999981 12.982361909794959 7.0681483474218645
    vertex 0.9999999999999981 12.500000000000002 7.267949192431122
  endloop
endfacet
facet normal 1.0 -0.0 -2.498001805406602e-16
  outer loop
    vertex 0.9999999999999981 4.999999999999999 8.999999999999998
    vertex 0.9999999999999981 12.500000000000002 7.267949192431122
    vertex 0.9999999999999981 12.085786437626906 7.585786437626905
  endloop
endfacet
facet normal 1.0 -0.0 -2.498001805406602e-16
  outer loop
    vertex 0.9999999999999981 4.999999999999999 8.999999999999998
    vertex 0.9999999999999981 12.085786437626906 7.585786437626905
    vertex 0.9999999999999981 11.767949192431123 7.999999999999999
  endloop
endfacet
facet normal 1.0 -0.0 -2.498001805406602e-16
  outer loop
    vertex 0.9999999999999981 4.999999999999999 8.999999999999998
    vertex 0.9999999999999981 11.767949192431123 7.999999999999999
    vertex 0.9999999999999981 11.568148347421864 8.482361909794959
  endloop
endfacet
facet normal 1.0 -0.0 -2.498001805406602e-16
  outer loop
    vertex 0.9999999999999981 4.999999999999999 8.999999999999998
    vertex 0.9999999999999981 11.568148347421864 8.482361909794959
    vertex 0.9999999999999981 11.500000000000002 8.999999999999998
  endloop
endfacet
facet normal 1.0 -0.0 -2.498001805406602e-16
  outer loop
    vertex 0.9999999999999981 12.982361909794959 7.0681483474218645
    vertex 0.9999999999999981 29.999999999999996 0.9999999999999996
    vertex 0.9999999999999981 13.5 7.000000000000001
  endloop
endfacet
facet normal 1.0 -0.0 -2.498001805406602e-16
  outer loop
    vertex 0.9999999999999981 13.5 7.000000000000001
    vertex 0.9999999999999981 29.999999999999996 0.9999999999999996
    vertex 0.9999999999999981 14.01763809020504 7.0681483474218645
  endloop
endfacet
facet normal 1.0 -0.0 -2.498001805406602e-16
  outer loop
    vertex 0.9999999999999981 14.01763809020504 7.0681483474218645
    vertex 0.9999999999999981 29.999999999999996 0.9999999999999996
    vertex 0.9999999999999981 14.499999999999998 7.267949192431122
  endloop
endfacet
facet normal 1.0 -0.0 -2.498001805406602e-16
  outer loop
    vertex 0.9999999999999981 14.499999999999998 7.267949192431122
    vertex 0.9999999999999981 29.999999999999996 0.9999999999999996
    vertex 0.9999999999999981 14.914213562373096 7.585786437626905
  endloop
endfacet
facet normal 1.0 -0.0 -2.498001805406602e-16
  outer loop
    vertex 0.9999999999999981 14.914213562373096 7.585786437626905
    vertex 0.9999999999999981 29.999999999999996 0.9999999999999996
    vertex 0.9999999999999981 15.232050807568877 7.999999999999999
  endloop
endfacet
facet normal 1.0 -0.0 -2.498001805406602e-16
  outer loop
    vertex 0.9999999999999981 15.232050807568877 7.999999999999999
    vertex 0.9999999999999981 29.999999999999996 0.9999999999999996
    vertex 0.9999999999999981 15.431851652578136 8.482361909794959
  endloop
endfacet
facet normal 1.0 -0.0 -2.498001805406602e-16
  outer loop
    vertex 0.9999999999999981 15.431851652578136 8.482361909794959
    vertex 0.9999999999999981 29.999999999999996 0.9999999999999996
    vertex 0.9999999999999981 15.5 8.999999999999998
  endloop
endfacet
facet normal 1.0 -0.0 -2.498001805406602e-16
  outer loop
    vertex 0.9999999999999981 15.5 8.999999999999998
    vertex 0.9999999999999981 29.999999999999996 0.9999999999999996
    vertex 0.9999999999999981 29.999999999999996 8.999999999999998
  endloop
endfacet
facet normal 0.0 -1.0 0.0
  outer loop
    vertex 5.000000000000002 34.0 0.9999999999999996
    vertex 30.0 34.0 8.999999999999991
    vertex 5.000000000000002 34.0 8.999999999999998
  endloop
endfacet
facet normal 0.0 -1.0 0.0
  outer loop
    vertex 30.0 34.0 8.999999999999991
    vertex 5.000000000000002 34.0 0.9999999999999996
    vertex 30.0 34.0 0.9999999999999926
  endloop
endfacet
facet normal 2.498001805406602e-16 0.0 1.0
  outer loop
    vertex 59.00000000000001 23.0 8.999999999999986
    vertex 59.00000000000001 17.5 8.999999999999986
    vertex 60.0 17.5 8.999999999999986
  endloop
endfacet
facet normal 2.498001805406602e-16 0.0 1.0
  outer loop
    vertex 59.00000000000001 17.5 8.999999999999986
    vertex 59.00000000000001 23.0 8.999999999999986
    vertex 59.00000000000001 22.0 8.999999999999986
  endloop
endfacet
facet normal 2.498001805406602e-16 0.0 1.0
  outer loop
    vertex 60.0 35.0 8.999999999999986
    vertex 59.00000000000001 29.999999999999996 8.999999999999986
    vertex 60.0 17.5 8.999999999999986
  endloop
endfacet
facet normal 2.498001805406602e-16 0.0 1.0
  outer loop
    vertex 59.00000000000001 29.999999999999996 8.999999999999986
    vertex 60.0 35.0 8.999999999999986
    vertex 55.0 34.0 8.999999999999986
  endloop
endfacet
facet normal 2.498001805406602e-16 0.0 1.0
  outer loop
    vertex 55.0 34.0 8.999999999999986
    vertex 60.0 35.0 8.999999999999986
    vertex 0.0 35.0 9.0
  endloop
endfacet
facet normal 2.498001805406602e-16 0.0 1.0
  outer loop
    vertex 60.0 17.5 8.999999999999986
    vertex 59.00000000000001 29.999999999999996 8.999999999999986
    vertex 59.00000000000001 23.0 8.999999999999986
  endloop
endfacet
facet normal 2.498001805406602e-16 0.0 1.0
  outer loop
    vertex 59.00000000000001 29.999999999999996 8.999999999999986
    vertex 55.0 34.0 8.999999999999986
    vertex 57.0 29.999999999999996 8.999999999999986
  endloop
endfacet
facet normal 2.498001805406602e-16 0.0 1.0
  outer loop
    vertex 57.0 29.999999999999996 8.999999999999986
    vertex 55.0 34.0 8.999999999999986
    vertex 57.0 23.0 8.999999999999986
  endloop
endfacet
facet normal 2.498001805406602e-16 0.0 1.0
  outer loop
    vertex 57.0 23.0 8.999999999999986
    vertex 55.0 34.0 8.999999999999986
    vertex 57.0 22.0 8.999999999999986
  endloop
endfacet
facet normal 2.498001805406602e-16 0.0 1.0
  outer loop
    vertex 55.0 34.0 8.999999999999986
    vertex 0.0 35.0 9.0
    vertex 31.000000000000004 34.0 8.999999999999991
  endloop
endfacet
facet normal 2.498001805406602e-16 0.0 1.0
  outer loop
    vertex 31.000000000000004 34.0 8.999999999999991
    vertex 0.0 35.0 9.0
    vertex 30.0 34.0 8.999999999999991
  endloop
endfacet
facet normal 2.498001805406602e-16 0.0 1.0
  outer loop
    vertex 31.000000000000004 34.0 8.999999999999991
    vertex 30.0 34.0 8.999999999999991
    vertex 30.000000000000007 17.5 8.999999999999991
  endloop
endfacet
facet normal 2.498001805406602e-16 0.0 1.0
  outer loop
    vertex 30.0 34.0 8.999999999999991
    vertex 0.0 35.0 9.0
    vertex 5.000000000000002 34.0 8.999999999999998
  endloop
endfacet
facet normal 2.498001805406602e-16 0.0 1.0
  outer loop
    vertex 5.000000000000002 34.0 8.999999999999998
    vertex 0.0 35.0 9.0
    vertex 5.000000000000002 29.999999999999996 8.999999999999998
  endloop
endfacet
facet normal 2.498001805406602e-16 0.0 1.0
  outer loop
    vertex 5.000000000000002 29.999999999999996 8.999999999999998
    vertex 0.0 35.0 9.0
    vertex 0.9999999999999981 29.999999999999996 8.999999999999998
  endloop
endfacet
facet normal 2.498001805406602e-16 0.0 1.0
  outer loop
    vertex 0.9999999999999981 29.999999999999996 8.999999999999998
    vertex 0.0 35.0 9.0
    vertex 0.9999999999999981 15.5 8.999999999999998
  endloop
endfacet
facet normal 2.498001805406602e-16 0.0 1.0
  outer loop
    vertex 0.9999999999999981 15.5 8.999999999999998
    vertex 0.0 35.0 9.0
    vertex 0.0 15.5 9.0
  endloop
endfacet
facet normal 2.498001805406602e-16 0.0 1.0
  outer loop
    vertex 30.000000000000007 17.5 8.999999999999991
    vertex 31.00000000000001 17.5 8.999999999999991
    vertex 31.000000000000004 34.0 8.999999999999991
  endloop
endfacet
facet normal 2.498001805406602e-16 0.0 1.0
  outer loop
    vertex 57.0 22.0 8.999999999999986
    vertex 55.0 20.0 8.999999999999986
    vertex 57.00000000000001 20.0 8.999999999999986
  endloop
endfacet
facet normal 2.498001805406602e-16 0.0 1.0
  outer loop
    vertex 55.0 20.0 8.999999999999986
    vertex 57.0 22.0 8.999999999999986
    vertex 55.0 34.0 8.999999999999986
  endloop
endfacet
facet normal 2.498001805406602e-16 0.0 1.0
  outer loop
    vertex 57.0 23.0 8.999999999999986
    vertex 59.00000000000001 22.0 8.999999999999986
    vertex 59.00000000000001 23.0 8.999999999999986
  endloop
endfacet
facet normal 2.498001805406602e-16 0.0 1.0
  outer loop
    vertex 59.00000000000001 22.0 8.999999999999986
    vertex 57.0 23.0 8.999999999999986
    vertex 57.0 22.0 8.999999999999986
  endloop
endfacet
facet normal -3.077261655094161e-15 0.38268343236509067 0.9238795325112865
  outer loop
    vertex 0.0 12.982361909794955 7.068148347421862
    vertex 0.9999999999999981 12.500000000000002 7.267949192431122
    vertex 0.9999999999999981 12.982361909794959 7.0681483474218645
  endloop
endfacet
facet normal -3.077261655094161e-15 0.38268343236509067 0.9238795325112865
  outer loop
    vertex 0.9999999999999981 12.500000000000002 7.267949192431122
    vertex 0.0 12.982361909794955 7.068148347421862
    vertex 0.0 12.499999999999996 7.267949192431122
  endloop
endfacet
facet normal 2.498001805406602e-16 0.0 1.0
  outer loop
    vertex 57.0 22.0 0.9999999999999869
    vertex 59.00000000000001 4.999999999999999 0.9999999999999855
    vertex 59.00000000000001 22.0 0.9999999999999855
  endloop
endfacet
facet normal 2.498001805406602e-16 0.0 1.0
  outer loop
    vertex 59.00000000000001 4.999999999999999 0.9999999999999855
    vertex 57.0 22.0 0.9999999999999869
    vertex 57.0 20.0 0.9999999999999869
  endloop
endfacet
facet normal 2.498001805406602e-16 0.0 1.0
  outer loop
    vertex 31.000000000000004 34.0 0.9999999999999926
    vertex 55.0 20.0 0.9999999999999869
    vertex 55.0 34.0 0.9999999999999869
  endloop
endfacet
facet normal 2.498001805406602e-16 0.0 1.0
  outer loop
    vertex 55.0 20.0 0.9999999999999869
    vertex 31.000000000000004 34.0 0.9999999999999926
    vertex 55.0 0.9999999999999994 0.9999999999999869
  endloop
endfacet
facet normal 2.498001805406602e-16 0.0 1.0
  outer loop
    vertex 55.0 0.9999999999999994 0.9999999999999869
    vertex 31.000000000000004 34.0 0.9999999999999926
    vertex 31.00000000000001 0.9999999999999996 0.9999999999999926
  endloop
endfacet
facet normal 2.498001805406602e-16 0.0 1.0
  outer loop
    vertex 55.0 20.0 0.9999999999999869
    vertex 57.0 6.999999999999998 0.9999999999999869
    vertex 57.0 20.0 0.9999999999999869
  endloop
endfacet
facet normal 2.498001805406602e-16 0.0 1.0
  outer loop
    vertex 57.0 6.999999999999998 0.9999999999999869
    vertex 55.0 20.0 0.9999999999999869
    vertex 55.0 6.999999999999998 0.9999999999999869
  endloop
endfacet
facet normal 2.498001805406602e-16 0.0 1.0
  outer loop
    vertex 55.0 6.999999999999998 0.9999999999999869
    vertex 55.0 20.0 0.9999999999999869
    vertex 55.0 0.9999999999999994 0.9999999999999869
  endloop
endfacet
facet normal 2.498001805406602e-16 0.0 1.0
  outer loop
    vertex 57.0 20.0 0.9999999999999869
    vertex 57.0 4.999999999999999 0.9999999999999869
    vertex 59.00000000000001 4.999999999999999 0.9999999999999855
  endloop
endfacet
facet normal 2.498001805406602e-16 0.0 1.0
  outer loop
    vertex 57.0 4.999999999999999 0.9999999999999869
    vertex 57.0 20.0 0.9999999999999869
    vertex 57.0 6.999999999999998 0.9999999999999869
  endloop
endfacet
facet normal 2.498001805406602e-16 0.0 1.0
  outer loop
    vertex 55.0 6.999999999999998 8.999999999999986
    vertex 57.00000000000001 4.999999999999999 8.999999999999986
    vertex 57.00000000000001 6.999999999999998 8.999999999999986
  endloop
endfacet
facet normal 2.498001805406602e-16 0.0 1.0
  outer loop
    vertex 30.000000000000007 17.5 8.999999999999991
    vertex 31.00000000000001 0.9999999999999996 8.999999999999991
    vertex 31.00000000000001 17.5 8.999999999999991
  endloop
endfacet
facet normal 2.498001805406602e-16 0.0 1.0
  outer loop
    vertex 31.00000000000001 0.9999999999999996 8.999999999999991
    vertex 30.000000000000007 17.5 8.999999999999991
    vertex 30.000000000000014 0.9999999999999996 8.999999999999991
  endloop
endfacet
facet normal 2.498001805406602e-16 0.0 1.0
  outer loop
    vertex 0.9999999999999981 4.999999999999999 8.999999999999998
    vertex 5.000000000000002 0.9999999999999994 8.999999999999998
    vertex 5.000000000000002 5.0 8.999999999999998
  endloop
endfacet
facet normal 2.498001805406602e-16 0.0 1.0
  outer loop
    vertex 0.0 11.499999999999998 9.0
    vertex 0.9999999999999981 4.999999999999999 8.999999999999998
    vertex 0.9999999999999981 11.500000000000002 8.999999999999998
  endloop
endfacet
facet normal 2.498001805406602e-16 0.0 1.0
  outer loop
    vertex 59.00000000000001 17.5 8.999999999999986
    vertex 60.0 0.0 8.999999999999986
    vertex 60.0 17.5 8.999999999999986
  endloop
endfacet
facet normal 2.498001805406602e-16 0.0 1.0
  outer loop
    vertex 60.0 0.0 8.999999999999986
    vertex 59.00000000000001 17.5 8.999999999999986
    vertex 59.00000000000001 4.999999999999999 8.999999999999986
  endloop
endfacet
facet normal 2.498001805406602e-16 0.0 1.0
  outer loop
    vertex 60.0 0.0 8.999999999999986
    vertex 59.00000000000001 4.999999999999999 8.999999999999986
    vertex 55.0 0.9999999999999994 8.999999999999986
  endloop
endfacet
facet normal 2.498001805406602e-16 0.0 1.0
  outer loop
    vertex 60.0 0.0 8.999999999999986
    vertex 55.0 0.9999999999999994 8.999999999999986
    vertex 0.0 0.0 9.0
  endloop
endfacet
facet normal 2.498001805406602e-16 0.0 1.0
  outer loop
    vertex 55.0 0.9999999999999994 8.999999999999986
    vertex 59.00000000000001 4.999999999999999 8.999999999999986
    vertex 57.00000000000001 4.999999999999999 8.999999999999986
  endloop
endfacet
facet normal 2.498001805406602e-16 0.0 1.0
  outer loop
    vertex 55.0 0.9999999999999994 8.999999999999986
    vertex 57.00000000000001 4.999999999999999 8.999999999999986
    vertex 55.0 6.999999999999998 8.999999999999986
  endloop
endfacet
facet normal 2.498001805406602e-16 0.0 1.0
  outer loop
    vertex 0.0 0.0 9.0
    vertex 55.0 0.9999999999999994 8.999999999999986
    vertex 31.00000000000001 0.9999999999999996 8.999999999999991
  endloop
endfacet
facet normal 2.498001805406602e-16 0.0 1.0
  outer loop
    vertex 0.0 0.0 9.0
    vertex 31.00000000000001 0.9999999999999996 8.999999999999991
    vertex 30.000000000000014 0.9999999999999996 8.999999999999991
  endloop
endfacet
facet normal 2.498001805406602e-16 0.0 1.0
  outer loop
    vertex 0.0 0.0 9.0
    vertex 30.000000000000014 0.9999999999999996 8.999999999999991
    vertex 5.000000000000002 0.9999999999999994 8.999999999999998
  endloop
endfacet
facet normal 2.498001805406602e-16 0.0 1.0
  outer loop
    vertex 0.0 0.0 9.0
    vertex 5.000000000000002 0.9999999999999994 8.999999999999998
    vertex 0.9999999999999981 4.999999999999999 8.999999999999998
  endloop
endfacet
facet normal 2.498001805406602e-16 0.0 1.0
  outer loop
    vertex 0.0 0.0 9.0
    vertex 0.9999999999999981 4.999999999999999 8.999999999999998
    vertex 0.0 11.499999999999998 9.0
  endloop
endfacet
facet normal 2.498001805406602e-16 0.0 1.0
  outer loop
    vertex 59.00000000000001 29.999999999999996 0.9999999999999855
    vertex 57.0 23.0 0.9999999999999869
    vertex 59.00000000000001 23.0 0.9999999999999855
  endloop
endfacet
facet normal 2.498001805406602e-16 0.0 1.0
  outer loop
    vertex 57.0 23.0 0.9999999999999869
    vertex 59.00000000000001 29.999999999999996 0.9999999999999855
    vertex 57.0 29.999999999999996 0.9999999999999869
  endloop
endfacet
facet normal -2.3654055953110636e-15 -0.1305261922200518 0.9914448613738105
  outer loop
    vertex 0.0 14.01763809020504 7.068148347421862
    vertex 0.9999999999999981 13.5 7.000000000000001
    vertex 0.9999999999999981 14.01763809020504 7.0681483474218645
  endloop
endfacet
facet normal -2.3654055953110636e-15 -0.1305261922200518 0.9914448613738105
  outer loop
    vertex 0.9999999999999981 13.5 7.000000000000001
    vertex 0.0 14.01763809020504 7.068148347421862
    vertex 0.0 13.499999999999998 6.999999999999998
  endloop
endfacet
facet normal -2.91321139455369e-15 0.13052619222005146 0.9914448613738105
  outer loop
    vertex 0.0 13.499999999999998 6.999999999999998
    vertex 0.9999999999999981 12.982361909794959 7.0681483474218645
    vertex 0.9999999999999981 13.5 7.000000000000001
  endloop
endfacet
facet normal -2.91321139455369e-15 0.13052619222005146 0.9914448613738105
  outer loop
    vertex 0.9999999999999981 12.982361909794959 7.0681483474218645
    vertex 0.0 13.499999999999998 6.999999999999998
    vertex 0.0 12.982361909794955 7.068148347421862
  endloop
endfacet
facet normal 2.498001805406602e-16 0.0 1.0
  outer loop
    vertex 0.9999999999999981 29.999999999999996 0.9999999999999996
    vertex 5.000000000000002 5.0 0.9999999999999996
    vertex 5.000000000000002 29.999999999999996 0.9999999999999996
  endloop
endfacet
facet normal 2.498001805406602e-16 0.0 1.0
  outer loop
    vertex 5.000000000000002 5.0 0.9999999999999996
    vertex 0.9999999999999981 29.999999999999996 0.9999999999999996
    vertex 0.9999999999999981 4.999999999999999 0.9999999999999996
  endloop
endfacet
facet normal 2.498001805406602e-16 0.0 1.0
  outer loop
    vertex 30.0 34.0 0.9999999999999926
    vertex 5.000000000000002 0.9999999999999994 0.9999999999999996
    vertex 30.000000000000014 0.9999999999999996 0.9999999999999926
  endloop
endfacet
facet normal 2.498001805406602e-16 0.0 1.0
  outer loop
    vertex 5.000000000000002 0.9999999999999994 0.9999999999999996
    vertex 30.0 34.0 0.9999999999999926
    vertex 5.000000000000002 34.0 0.9999999999999996
  endloop
endfacet
facet normal 2.498001805406602e-16 0.0 1.0
  outer loop
    vertex 5.000000000000002 0.9999999999999994 0.9999999999999996
    vertex 5.000000000000002 34.0 0.9999999999999996
    vertex 5.000000000000002 29.999999999999996 0.9999999999999996
  endloop
endfacet
facet normal 2.498001805406602e-16 0.0 1.0
  outer loop
    vertex 5.000000000000002 0.9999999999999994 0.9999999999999996
    vertex 5.000000000000002 29.999999999999996 0.9999999999999996
    vertex 5.000000000000002 5.0 0.9999999999999996
  endloop
endfacet
facet normal -3.5017731291483327e-15 0.6087614290087213 0.7933533402912347
  outer loop
    vertex 0.0 12.499999999999996 7.267949192431122
    vertex 0.9999999999999981 12.085786437626906 7.585786437626905
    vertex 0.9999999999999981 12.500000000000002 7.267949192431122
  endloop
endfacet
facet normal -3.5017731291483327e-15 0.6087614290087213 0.7933533402912347
  outer loop
    vertex 0.9999999999999981 12.085786437626906 7.585786437626905
    vertex 0.0 12.499999999999996 7.267949192431122
    vertex 0.0 12.085786437626902 7.585786437626905
  endloop
endfacet
facet normal -2.498001805406602e-16 0.0 -1.0
  outer loop
    vertex 0.0 0.0 0.0
    vertex 60.0 35.0 -1.5509815654013436e-14
    vertex 60.0 0.0 -1.5509815654013436e-14
  endloop
endfacet
facet normal -2.498001805406602e-16 0.0 -1.0
  outer loop
    vertex 60.0 35.0 -1.5509815654013436e-14
    vertex 0.0 0.0 0.0
    vertex 0.0 35.0 0.0
  endloop
endfacet
facet normal -4.2522014507974245e-15 0.9914448613738107 0.13052619222004896
  outer loop
    vertex 0.9999999999999981 11.568148347421864 8.482361909794959
    vertex 0.0 11.499999999999998 9.0
    vertex 0.9999999999999981 11.500000000000002 8.999999999999998
  endloop
endfacet
facet normal -4.2522014507974245e-15 0.9914448613738107 0.13052619222004896
  outer loop
    vertex 0.0 11.499999999999998 9.0
    vertex 0.9999999999999981 11.568148347421864 8.482361909794959
    vertex 0.0 11.56814834742186 8.482361909794959
  endloop
endfacet
facet normal -4.28049786032944e-15 0.7933533402912344 0.6087614290087215
  outer loop
    vertex 0.9999999999999981 12.085786437626906 7.585786437626905
    vertex 0.0 11.76794919243112 7.999999999999998
    vertex 0.9999999999999981 11.767949192431123 7.999999999999999
  endloop
endfacet
facet normal -4.28049786032944e-15 0.7933533402912344 0.6087614290087215
  outer loop
    vertex 0.0 11.76794919243112 7.999999999999998
    vertex 0.9999999999999981 12.085786437626906 7.585786437626905
    vertex 0.0 12.085786437626902 7.585786437626905
  endloop
endfacet
facet normal -7.393176933125869e-17 -0.6087614290087202 0.7933533402912357
  outer loop
    vertex 0.0 14.914213562373094 7.585786437626905
    vertex 0.9999999999999981 14.499999999999998 7.267949192431122
    vertex 0.9999999999999981 14.914213562373096 7.585786437626905
  endloop
endfacet
facet normal -7.393176933125869e-17 -0.6087614290087202 0.7933533402912357
  outer loop
    vertex 0.9999999999999981 14.499999999999998 7.267949192431122
    vertex 0.0 14.914213562373094 7.585786437626905
    vertex 0.0 14.499999999999998 7.267949192431122
  endloop
endfacet
facet normal -1.7321651846854997e-15 -0.38268343236509017 0.9238795325112865
  outer loop
    vertex 0.0 14.499999999999998 7.267949192431122
    vertex 0.9999999999999981 14.01763809020504 7.0681483474218645
    vertex 0.9999999999999981 14.499999999999998 7.267949192431122
  endloop
endfacet
facet normal -1.7321651846854997e-15 -0.38268343236509017 0.9238795325112865
  outer loop
    vertex 0.9999999999999981 14.01763809020504 7.0681483474218645
    vertex 0.0 14.499999999999998 7.267949192431122
    vertex 0.0 14.01763809020504 7.068148347421862
  endloop
endfacet
facet normal 3.2605466381853815e-17 -0.9914448613738105 0.13052619222005163
  outer loop
    vertex 0.0 15.431851652578136 8.482361909794959
    vertex 0.9999999999999981 15.5 8.999999999999998
    vertex 0.0 15.5 9.0
  endloop
endfacet
facet normal 3.2605466381853815e-17 -0.9914448613738105 0.13052619222005163
  outer loop
    vertex 0.9999999999999981 15.5 8.999999999999998
    vertex 0.0 15.431851652578136 8.482361909794959
    vertex 0.9999999999999981 15.431851652578136 8.482361909794959
  endloop
endfacet
facet normal -4.4938076562902206e-17 -0.9238795325112862 0.38268343236509106
  outer loop
    vertex 0.0 15.232050807568877 7.999999999999999
    vertex 0.9999999999999981 15.431851652578136 8.482361909794959
    vertex 0.0 15.431851652578136 8.482361909794959
  endloop
endfacet
facet normal -4.4938076562902206e-17 -0.9238795325112862 0.38268343236509106
  outer loop
    vertex 0.9999999999999981 15.431851652578136 8.482361909794959
    vertex 0.0 15.232050807568877 7.999999999999999
    vertex 0.9999999999999981 15.232050807568877 7.999999999999999
  endloop
endfacet
facet normal -5.14297565876806e-15 0.9238795325112867 0.3826834323650899
  outer loop
    vertex 0.9999999999999981 11.767949192431123 7.999999999999999
    vertex 0.0 11.56814834742186 8.482361909794959
    vertex 0.9999999999999981 11.568148347421864 8.482361909794959
  endloop
endfacet
facet normal -5.14297565876806e-15 0.9238795325112867 0.3826834323650899
  outer loop
    vertex 0.0 11.56814834742186 8.482361909794959
    vertex 0.9999999999999981 11.767949192431123 7.999999999999999
    vertex 0.0 11.76794919243112 7.999999999999998
  endloop
endfacet
facet normal 6.370896930719882e-16 -0.7933533402912357 0.6087614290087199
  outer loop
    vertex 0.0 15.232050807568877 7.999999999999999
    vertex 0.9999999999999981 14.914213562373096 7.585786437626905
    vertex 0.9999999999999981 15.232050807568877 7.999999999999999
  endloop
endfacet
facet normal 6.370896930719882e-16 -0.7933533402912357 0.6087614290087199
  outer loop
    vertex 0.9999999999999981 14.914213562373096 7.585786437626905
    vertex 0.0 15.232050807568877 7.999999999999999
    vertex 0.0 14.914213562373094 7.585786437626905
  endloop
endfacet
endsolid WirelessAP
