solid WirelessAP2
facet normal 0.0 -1.0 1.1796119636642288e-15
  outer loop
    vertex 71.0 58.50103511195156 -4.229949723821846e-15
    vertex 65.99999999999999 58.50103511195156 0.9999999999999953
    vertex 21.000000000000007 58.50103511195156 -4.229949723821846e-15
  endloop
endfacet
facet normal 0.0 -1.0 1.1796119636642288e-15
  outer loop
    vertex 65.99999999999999 58.50103511195156 0.9999999999999953
    vertex 71.0 58.50103511195156 -4.229949723821846e-15
    vertex 71.0 58.50103511195157 10.999999999999995
  endloop
endfacet
facet normal 0.0 -1.0 1.1796119636642288e-15
  outer loop
    vertex 65.99999999999999 58.50103511195156 0.9999999999999953
    vertex 71.0 58.50103511195157 10.999999999999995
    vertex 65.99999999999999 58.50103511195157 10.999999999999995
  endloop
endfacet
facet normal 0.0 -1.0 1.1796119636642288e-15
  outer loop
    vertex 21.000000000000007 58.50103511195156 -4.229949723821846e-15
    vertex 26.000000000000007 58.50103511195156 1.000000000000008
    vertex 21.000000000000007 58.50103511195157 10.999999999999995
  endloop
endfacet
facet normal 0.0 -1.0 1.1796119636642288e-15
  outer loop
    vertex 26.000000000000007 58.50103511195156 1.000000000000008
    vertex 21.000000000000007 58.50103511195156 -4.229949723821846e-15
    vertex 65.99999999999999 58.50103511195156 0.9999999999999953
  endloop
endfacet
facet normal 0.0 -1.0 1.1796119636642288e-15
  outer loop
    vertex 21.000000000000007 58.50103511195157 10.999999999999995
    vertex 26.000000000000007 58.50103511195156 1.000000000000008
    vertex 26.000000000000007 58.50103511195157 10.999999999999995
  endloop
endfacet
facet normal 1.0 0.0 0.0
  outer loop
    vertex 26.000000000000007 60.50103511195156 1.0000000000000095
    vertex 26.000000000000007 58.50103511195157 10.999999999999995
    vertex 26.000000000000007 58.50103511195156 1.000000000000008
  endloop
endfacet
facet normal 1.0 0.0 0.0
  outer loop
    vertex 26.000000000000007 58.50103511195157 10.999999999999995
    vertex 26.000000000000007 60.50103511195156 1.0000000000000095
    vertex 26.000000000000007 60.501035111951566 10.999999999999995
  endloop
endfacet
facet normal 1.0 0.0 0.0
  outer loop
    vertex 71.0 58.50103511195156 -4.229949723821846e-15
    vertex 71.0 60.50103511195156 0.9999999999999939
    vertex 71.0 58.50103511195157 10.999999999999995
  endloop
endfacet
facet normal 1.0 0.0 0.0
  outer loop
    vertex 71.0 60.50103511195156 0.9999999999999939
    vertex 71.0 58.50103511195156 -4.229949723821846e-15
    vertex 71.0 98.50103511195157 -5.0759396685862156e-14
  endloop
endfacet
facet normal 1.0 0.0 0.0
  outer loop
    vertex 71.0 60.50103511195156 0.9999999999999939
    vertex 71.0 98.50103511195157 -5.0759396685862156e-14
    vertex 71.0 96.50103511195155 0.9999999999999573
  endloop
endfacet
facet normal 1.0 0.0 0.0
  outer loop
    vertex 71.0 96.50103511195155 0.9999999999999573
    vertex 71.0 98.50103511195157 -5.0759396685862156e-14
    vertex 71.0 96.50103511195157 10.999999999999956
  endloop
endfacet
facet normal 1.0 0.0 0.0
  outer loop
    vertex 71.0 96.50103511195157 10.999999999999956
    vertex 71.0 98.50103511195157 -5.0759396685862156e-14
    vertex 71.0 98.50103511195158 10.999999999999954
  endloop
endfacet
facet normal 1.0 0.0 0.0
  outer loop
    vertex 71.0 60.501035111951566 10.999999999999995
    vertex 71.0 58.50103511195157 10.999999999999995
    vertex 71.0 60.50103511195156 0.9999999999999939
  endloop
endfacet
facet normal 1.9725210786373242e-33 1.0033640585049854e-15 1.0
  outer loop
    vertex 71.0 58.50103511195157 10.999999999999995
    vertex 65.99999999999999 60.501035111951566 10.999999999999995
    vertex 65.99999999999999 58.50103511195157 10.999999999999995
  endloop
endfacet
facet normal 1.9725210786373242e-33 1.0033640585049854e-15 1.0
  outer loop
    vertex 65.99999999999999 60.501035111951566 10.999999999999995
    vertex 71.0 58.50103511195157 10.999999999999995
    vertex 71.0 60.501035111951566 10.999999999999995
  endloop
endfacet
facet normal 0.0 1.0 -1.1796119636642288e-15
  outer loop
    vertex 21.000000000000007 60.501035111951566 10.999999999999995
    vertex 26.000000000000007 60.50103511195156 1.0000000000000095
    vertex 21.000000000000007 60.50103511195156 1.0000000000000095
  endloop
endfacet
facet normal 0.0 1.0 -1.1796119636642288e-15
  outer loop
    vertex 26.000000000000007 60.50103511195156 1.0000000000000095
    vertex 21.000000000000007 60.501035111951566 10.999999999999995
    vertex 26.000000000000007 60.501035111951566 10.999999999999995
  endloop
endfacet
facet normal 0.0 1.0 -1.1796119636642288e-15
  outer loop
    vertex 65.99999999999999 60.501035111951566 10.999999999999995
    vertex 71.0 60.50103511195156 0.9999999999999939
    vertex 65.99999999999999 60.50103511195156 0.9999999999999939
  endloop
endfacet
facet normal 0.0 1.0 -1.1796119636642288e-15
  outer loop
    vertex 71.0 60.50103511195156 0.9999999999999939
    vertex 65.99999999999999 60.501035111951566 10.999999999999995
    vertex 71.0 60.501035111951566 10.999999999999995
  endloop
endfacet
facet normal -0.0 -1.1796119636642288e-15 -1.0
  outer loop
    vertex 71.0 98.50103511195157 -5.0759396685862156e-14
    vertex 21.000000000000007 58.50103511195156 -4.229949723821846e-15
    vertex 21.000000000000007 98.50103511195157 -5.0759396685862156e-14
  endloop
endfacet
facet normal -0.0 -1.1796119636642288e-15 -1.0
  outer loop
    vertex 21.000000000000007 58.50103511195156 -4.229949723821846e-15
    vertex 71.0 98.50103511195157 -5.0759396685862156e-14
    vertex 71.0 58.50103511195156 -4.229949723821846e-15
  endloop
endfacet
facet normal 0.0 1.0033640585049852e-15 1.0
  outer loop
    vertex 26.000000000000007 96.50103511195157 10.999999999999954
    vertex 21.000000000000007 98.50103511195158 10.999999999999952
    vertex 21.000000000000007 96.50103511195157 10.999999999999954
  endloop
endfacet
facet normal 0.0 1.0033640585049852e-15 1.0
  outer loop
    vertex 21.000000000000007 98.50103511195158 10.999999999999952
    vertex 26.000000000000007 96.50103511195157 10.999999999999954
    vertex 26.000000000000007 98.50103511195158 10.999999999999952
  endloop
endfacet
facet normal 1.8305045588468808e-16 1.2038292330754226e-15 1.0
  outer loop
    vertex 71.0 60.50103511195156 0.9999999999999939
    vertex 65.99999999999999 96.50103511195155 0.9999999999999573
    vertex 65.99999999999999 60.50103511195156 0.9999999999999939
  endloop
endfacet
facet normal 1.8305045588468808e-16 1.2038292330754226e-15 1.0
  outer loop
    vertex 65.99999999999999 96.50103511195155 0.9999999999999573
    vertex 71.0 60.50103511195156 0.9999999999999939
    vertex 71.0 96.50103511195155 0.9999999999999573
  endloop
endfacet
facet normal 1.8305045588468808e-16 1.2038292330754226e-15 1.0
  outer loop
    vertex 65.99999999999999 58.50103511195156 0.9999999999999953
    vertex 26.000000000000007 60.50103511195156 1.0000000000000095
    vertex 26.000000000000007 58.50103511195156 1.000000000000008
  endloop
endfacet
facet normal 1.8305045588468808e-16 1.2038292330754226e-15 1.0
  outer loop
    vertex 26.000000000000007 60.50103511195156 1.0000000000000095
    vertex 65.99999999999999 58.50103511195156 0.9999999999999953
    vertex 26.000000000000007 96.50103511195155 0.9999999999999587
  endloop
endfacet
facet normal 1.8305045588468808e-16 1.2038292330754226e-15 1.0
  outer loop
    vertex 26.000000000000007 96.50103511195155 0.9999999999999587
    vertex 65.99999999999999 58.50103511195156 0.9999999999999953
    vertex 26.000000000000007 98.50103511195157 0.9999999999999558
  endloop
endfacet
facet normal 1.8305045588468808e-16 1.2038292330754226e-15 1.0
  outer loop
    vertex 26.000000000000007 98.50103511195157 0.9999999999999558
    vertex 65.99999999999999 58.50103511195156 0.9999999999999953
    vertex 65.99999999999999 98.50103511195157 0.9999999999999545
  endloop
endfacet
facet normal 1.8305045588468808e-16 1.2038292330754226e-15 1.0
  outer loop
    vertex 65.99999999999999 98.50103511195157 0.9999999999999545
    vertex 65.99999999999999 58.50103511195156 0.9999999999999953
    vertex 65.99999999999999 60.50103511195156 0.9999999999999939
  endloop
endfacet
facet normal 1.8305045588468808e-16 1.2038292330754226e-15 1.0
  outer loop
    vertex 65.99999999999999 98.50103511195157 0.9999999999999545
    vertex 65.99999999999999 60.50103511195156 0.9999999999999939
    vertex 65.99999999999999 96.50103511195155 0.9999999999999573
  endloop
endfacet
facet normal 1.8305045588468808e-16 1.2038292330754226e-15 1.0
  outer loop
    vertex 26.000000000000007 60.50103511195156 1.0000000000000095
    vertex 21.000000000000007 96.50103511195155 0.9999999999999587
    vertex 21.000000000000007 60.50103511195156 1.0000000000000095
  endloop
endfacet
facet normal 1.8305045588468808e-16 1.2038292330754226e-15 1.0
  outer loop
    vertex 21.000000000000007 96.50103511195155 0.9999999999999587
    vertex 26.000000000000007 60.50103511195156 1.0000000000000095
    vertex 26.000000000000007 96.50103511195155 0.9999999999999587
  endloop
endfacet
facet normal -1.4015605235591106e-47 1.0033640585049852e-15 1.0
  outer loop
    vertex 71.0 96.50103511195157 10.999999999999956
    vertex 65.99999999999999 98.50103511195158 10.999999999999954
    vertex 65.99999999999999 96.50103511195157 10.999999999999956
  endloop
endfacet
facet normal -1.4015605235591106e-47 1.0033640585049852e-15 1.0
  outer loop
    vertex 65.99999999999999 98.50103511195158 10.999999999999954
    vertex 71.0 96.50103511195157 10.999999999999956
    vertex 71.0 98.50103511195158 10.999999999999954
  endloop
endfacet
facet normal -1.0 0.0 0.0
  outer loop
    vertex 65.99999999999999 96.50103511195157 10.999999999999956
    vertex 65.99999999999999 98.50103511195157 0.9999999999999545
    vertex 65.99999999999999 96.50103511195155 0.9999999999999573
  endloop
endfacet
facet normal -1.0 0.0 0.0
  outer loop
    vertex 65.99999999999999 98.50103511195157 0.9999999999999545
    vertex 65.99999999999999 96.50103511195157 10.999999999999956
    vertex 65.99999999999999 98.50103511195158 10.999999999999954
  endloop
endfacet
facet normal 0.0 1.0 -1.1796119636642288e-15
  outer loop
    vertex 21.000000000000007 98.50103511195157 -5.0759396685862156e-14
    vertex 26.000000000000007 98.50103511195157 0.9999999999999558
    vertex 71.0 98.50103511195157 -5.0759396685862156e-14
  endloop
endfacet
facet normal 0.0 1.0 -1.1796119636642288e-15
  outer loop
    vertex 26.000000000000007 98.50103511195157 0.9999999999999558
    vertex 21.000000000000007 98.50103511195157 -5.0759396685862156e-14
    vertex 21.000000000000007 98.50103511195158 10.999999999999952
  endloop
endfacet
facet normal 0.0 1.0 -1.1796119636642288e-15
  outer loop
    vertex 71.0 98.50103511195157 -5.0759396685862156e-14
    vertex 26.000000000000007 98.50103511195157 0.9999999999999558
    vertex 65.99999999999999 98.50103511195157 0.9999999999999545
  endloop
endfacet
facet normal 0.0 1.0 -1.1796119636642288e-15
  outer loop
    vertex 26.000000000000007 98.50103511195157 0.9999999999999558
    vertex 21.000000000000007 98.50103511195158 10.999999999999952
    vertex 26.000000000000007 98.50103511195158 10.999999999999952
  endloop
endfacet
facet normal 0.0 1.0 -1.1796119636642288e-15
  outer loop
    vertex 65.99999999999999 98.50103511195157 0.9999999999999545
    vertex 71.0 98.50103511195158 10.999999999999954
    vertex 71.0 98.50103511195157 -5.0759396685862156e-14
  endloop
endfacet
facet normal 0.0 1.0 -1.1796119636642288e-15
  outer loop
    vertex 71.0 98.50103511195158 10.999999999999954
    vertex 65.99999999999999 98.50103511195157 0.9999999999999545
    vertex 65.99999999999999 98.50103511195158 10.999999999999954
  endloop
endfacet
facet normal 1.9725210786369903e-33 1.0033640585049854e-15 1.0
  outer loop
    vertex 26.000000000000007 58.50103511195157 10.999999999999995
    vertex 21.000000000000007 60.501035111951566 10.999999999999995
    vertex 21.000000000000007 58.50103511195157 10.999999999999995
  endloop
endfacet
facet normal 1.9725210786369903e-33 1.0033640585049854e-15 1.0
  outer loop
    vertex 21.000000000000007 60.501035111951566 10.999999999999995
    vertex 26.000000000000007 58.50103511195157 10.999999999999995
    vertex 26.000000000000007 60.501035111951566 10.999999999999995
  endloop
endfacet
facet normal 1.0 0.0 0.0
  outer loop
    vertex 26.000000000000007 98.50103511195157 0.9999999999999558
    vertex 26.000000000000007 96.50103511195157 10.999999999999954
    vertex 26.000000000000007 96.50103511195155 0.9999999999999587
  endloop
endfacet
facet normal 1.0 0.0 0.0
  outer loop
    vertex 26.000000000000007 96.50103511195157 10.999999999999954
    vertex 26.000000000000007 98.50103511195157 0.9999999999999558
    vertex 26.000000000000007 98.50103511195158 10.999999999999952
  endloop
endfacet
facet normal -1.0 0.0 0.0
  outer loop
    vertex 21.000000000000007 60.501035111951566 10.999999999999995
    vertex 21.000000000000007 60.50103511195156 1.0000000000000095
    vertex 21.000000000000007 58.50103511195157 10.999999999999995
  endloop
endfacet
facet normal -1.0 0.0 0.0
  outer loop
    vertex 21.000000000000007 58.50103511195156 -4.229949723821846e-15
    vertex 21.000000000000007 60.50103511195156 1.0000000000000095
    vertex 21.000000000000007 98.50103511195157 -5.0759396685862156e-14
  endloop
endfacet
facet normal -1.0 0.0 0.0
  outer loop
    vertex 21.000000000000007 60.50103511195156 1.0000000000000095
    vertex 21.000000000000007 58.50103511195156 -4.229949723821846e-15
    vertex 21.000000000000007 58.50103511195157 10.999999999999995
  endloop
endfacet
facet normal -1.0 0.0 0.0
  outer loop
    vertex 21.000000000000007 98.50103511195157 -5.0759396685862156e-14
    vertex 21.000000000000007 60.50103511195156 1.0000000000000095
    vertex 21.000000000000007 96.50103511195155 0.9999999999999587
  endloop
endfacet
facet normal -1.0 0.0 0.0
  outer loop
    vertex 21.000000000000007 98.50103511195157 -5.0759396685862156e-14
    vertex 21.000000000000007 96.50103511195155 0.9999999999999587
    vertex 21.000000000000007 96.50103511195157 10.999999999999954
  endloop
endfacet
facet normal -1.0 0.0 0.0
  outer loop
    vertex 21.000000000000007 98.50103511195157 -5.0759396685862156e-14
    vertex 21.000000000000007 96.50103511195157 10.999999999999954
    vertex 21.000000000000007 98.50103511195158 10.999999999999952
  endloop
endfacet
facet normal 0.0 -1.0 1.0738632205686826e-15
  outer loop
    vertex 26.000000000000007 96.50103511195157 10.999999999999954
    vertex 21.000000000000007 96.50103511195155 0.9999999999999587
    vertex 26.000000000000007 96.50103511195155 0.9999999999999587
  endloop
endfacet
facet normal 0.0 -1.0 1.0738632205686826e-15
  outer loop
    vertex 21.000000000000007 96.50103511195155 0.9999999999999587
    vertex 26.000000000000007 96.50103511195157 10.999999999999954
    vertex 21.000000000000007 96.50103511195157 10.999999999999954
  endloop
endfacet
facet normal 0.0 -1.0 1.1796119636642288e-15
  outer loop
    vertex 71.0 96.50103511195157 10.999999999999956
    vertex 65.99999999999999 96.50103511195155 0.9999999999999573
    vertex 71.0 96.50103511195155 0.9999999999999573
  endloop
endfacet
facet normal 0.0 -1.0 1.1796119636642288e-15
  outer loop
    vertex 65.99999999999999 96.50103511195155 0.9999999999999573
    vertex 71.0 96.50103511195157 10.999999999999956
    vertex 65.99999999999999 96.50103511195157 10.999999999999956
  endloop
endfacet
facet normal -1.0 0.0 0.0
  outer loop
    vertex 65.99999999999999 58.50103511195157 10.999999999999995
    vertex 65.99999999999999 60.50103511195156 0.9999999999999939
    vertex 65.99999999999999 58.50103511195156 0.9999999999999953
  endloop
endfacet
facet normal -1.0 0.0 0.0
  outer loop
    vertex 65.99999999999999 60.50103511195156 0.9999999999999939
    vertex 65.99999999999999 58.50103511195157 10.999999999999995
    vertex 65.99999999999999 60.501035111951566 10.999999999999995
  endloop
endfacet
facet normal 0.0 -1.0 0.0
  outer loop
    vertex 26.378149999999998 24.166666666666668 0.9999999999999974
    vertex 2.5 24.166666666666668 0.0
    vertex 26.378149999999998 24.166666666666668 0.0
  endloop
endfacet
facet normal 0.0 -1.0 0.0
  outer loop
    vertex 2.5 24.166666666666668 0.0
    vertex 26.378149999999998 24.166666666666668 0.9999999999999974
    vertex 2.5 24.166666666666668 0.9999999999999974
  endloop
endfacet
facet normal 0.0 -1.0 0.0
  outer loop
    vertex 70.0 40.0 37.0
    vertex 0.0 40.0 1.0000000000000067
    vertex 70.0 40.0 1.0000000000000067
  endloop
endfacet
facet normal 0.0 -1.0 0.0
  outer loop
    vertex 0.0 40.0 1.0000000000000067
    vertex 70.0 40.0 37.0
    vertex 0.0 40.0 37.0
  endloop
endfacet
facet normal 0.0 1.0 0.0
  outer loop
    vertex 2.5 29.16666666666667 0.9999999999999908
    vertex 26.378149999999998 29.16666666666667 0.0
    vertex 2.5 29.16666666666667 0.0
  endloop
endfacet
facet normal 0.0 1.0 0.0
  outer loop
    vertex 26.378149999999998 29.16666666666667 0.0
    vertex 2.5 29.16666666666667 0.9999999999999908
    vertex 26.378149999999998 29.16666666666667 0.9999999999999908
  endloop
endfacet
facet normal -1.0 -0.0 -0.0
  outer loop
    vertex 26.378149999999998 10.833333333333336 1.000000000000008
    vertex 26.378149999999998 9.166666666666668 0.0
    vertex 26.378149999999998 9.166666666666668 1.000000000000008
  endloop
endfacet
facet normal -1.0 -0.0 -0.0
  outer loop
    vertex 26.378149999999998 9.166666666666668 0.0
    vertex 26.378149999999998 10.833333333333336 1.000000000000008
    vertex 26.378149999999998 10.833333333333336 0.0
  endloop
endfacet
facet normal 0.0 1.0 0.0
  outer loop
    vertex 2.5 22.5 0.9999999999999974
    vertex 26.378149999999998 22.5 0.0
    vertex 2.5 22.5 0.0
  endloop
endfacet
facet normal 0.0 1.0 0.0
  outer loop
    vertex 26.378149999999998 22.5 0.0
    vertex 2.5 22.5 0.9999999999999974
    vertex 26.378149999999998 22.5 0.9999999999999974
  endloop
endfacet
facet normal 0.0 0.0 1.0
  outer loop
    vertex -0.9999999999999999 -0.9999999999999999 37.0
    vertex 0.0 0.0 37.0
    vertex -0.9999999999999999 41.0 37.0
  endloop
endfacet
facet normal 0.0 0.0 1.0
  outer loop
    vertex 0.0 0.0 37.0
    vertex -0.9999999999999999 -0.9999999999999999 37.0
    vertex 71.0 -0.9999999999999999 37.0
  endloop
endfacet
facet normal 0.0 0.0 1.0
  outer loop
    vertex 0.0 0.0 37.0
    vertex 71.0 -0.9999999999999999 37.0
    vertex 70.0 0.0 37.0
  endloop
endfacet
facet normal 0.0 0.0 1.0
  outer loop
    vertex 70.0 0.0 37.0
    vertex 71.0 -0.9999999999999999 37.0
    vertex 70.0 40.0 37.0
  endloop
endfacet
facet normal 0.0 0.0 1.0
  outer loop
    vertex -0.9999999999999999 41.0 37.0
    vertex 0.0 40.0 37.0
    vertex 71.0 41.0 37.0
  endloop
endfacet
facet normal 0.0 0.0 1.0
  outer loop
    vertex 0.0 40.0 37.0
    vertex -0.9999999999999999 41.0 37.0
    vertex 0.0 0.0 37.0
  endloop
endfacet
facet normal 0.0 0.0 1.0
  outer loop
    vertex 71.0 41.0 37.0
    vertex 0.0 40.0 37.0
    vertex 70.0 40.0 37.0
  endloop
endfacet
facet normal 0.0 0.0 1.0
  outer loop
    vertex 71.0 41.0 37.0
    vertex 70.0 40.0 37.0
    vertex 71.0 -0.9999999999999999 37.0
  endloop
endfacet
facet normal 1.0 0.0 0.0
  outer loop
    vertex 71.0 41.0 0.0
    vertex 71.0 -0.9999999999999999 37.0
    vertex 71.0 -0.9999999999999999 0.0
  endloop
endfacet
facet normal 1.0 0.0 0.0
  outer loop
    vertex 71.0 -0.9999999999999999 37.0
    vertex 71.0 41.0 0.0
    vertex 71.0 41.0 37.0
  endloop
endfacet
facet normal 1.0 0.0 0.0
  outer loop
    vertex 2.5 30.833333333333332 0.0
    vertex 2.5 29.16666666666667 0.9999999999999908
    vertex 2.5 29.16666666666667 0.0
  endloop
endfacet
facet normal 1.0 0.0 0.0
  outer loop
    vertex 2.5 29.16666666666667 0.9999999999999908
    vertex 2.5 30.833333333333332 0.0
    vertex 2.5 30.833333333333332 0.9999999999999908
  endloop
endfacet
facet normal 0.0 0.0 -1.0
  outer loop
    vertex -0.9999999999999999 41.0 0.0
    vertex 2.5 30.833333333333332 0.0
    vertex -0.9999999999999999 -0.9999999999999999 0.0
  endloop
endfacet
facet normal 0.0 0.0 -1.0
  outer loop
    vertex 2.5 30.833333333333332 0.0
    vertex -0.9999999999999999 41.0 0.0
    vertex 71.0 41.0 0.0
  endloop
endfacet
facet normal 0.0 0.0 -1.0
  outer loop
    vertex 2.5 30.833333333333332 0.0
    vertex 71.0 41.0 0.0
    vertex 26.378149999999998 30.833333333333332 0.0
  endloop
endfacet
facet normal 0.0 0.0 -1.0
  outer loop
    vertex 26.378149999999998 30.833333333333332 0.0
    vertex 71.0 41.0 0.0
    vertex 26.378149999999998 29.16666666666667 0.0
  endloop
endfacet
facet normal 0.0 0.0 -1.0
  outer loop
    vertex 26.378149999999998 29.16666666666667 0.0
    vertex 71.0 41.0 0.0
    vertex 26.378149999999998 24.166666666666668 0.0
  endloop
endfacet
facet normal 0.0 0.0 -1.0
  outer loop
    vertex 26.378149999999998 24.166666666666668 0.0
    vertex 71.0 41.0 0.0
    vertex 26.378149999999998 22.5 0.0
  endloop
endfacet
facet normal 0.0 0.0 -1.0
  outer loop
    vertex 26.378149999999998 22.5 0.0
    vertex 71.0 41.0 0.0
    vertex 26.378149999999998 17.5 0.0
  endloop
endfacet
facet normal 0.0 0.0 -1.0
  outer loop
    vertex 26.378149999999998 17.5 0.0
    vertex 71.0 41.0 0.0
    vertex 26.378149999999998 15.833333333333336 0.0
  endloop
endfacet
facet normal 0.0 0.0 -1.0
  outer loop
    vertex 26.378149999999998 15.833333333333336 0.0
    vertex 71.0 41.0 0.0
    vertex 26.378149999999998 10.833333333333336 0.0
  endloop
endfacet
facet normal 0.0 0.0 -1.0
  outer loop
    vertex 26.378149999999998 10.833333333333336 0.0
    vertex 71.0 41.0 0.0
    vertex 26.378149999999998 9.166666666666668 0.0
  endloop
endfacet
facet normal 0.0 0.0 -1.0
  outer loop
    vertex -0.9999999999999999 -0.9999999999999999 0.0
    vertex 2.5 9.166666666666668 0.0
    vertex 71.0 -0.9999999999999999 0.0
  endloop
endfacet
facet normal 0.0 0.0 -1.0
  outer loop
    vertex 2.5 9.166666666666668 0.0
    vertex -0.9999999999999999 -0.9999999999999999 0.0
    vertex 2.5 30.833333333333332 0.0
  endloop
endfacet
facet normal 0.0 0.0 -1.0
  outer loop
    vertex 2.5 9.166666666666668 0.0
    vertex 2.5 30.833333333333332 0.0
    vertex 2.5 29.16666666666667 0.0
  endloop
endfacet
facet normal 0.0 0.0 -1.0
  outer loop
    vertex 2.5 9.166666666666668 0.0
    vertex 2.5 29.16666666666667 0.0
    vertex 2.5 24.166666666666668 0.0
  endloop
endfacet
facet normal 0.0 0.0 -1.0
  outer loop
    vertex 2.5 9.166666666666668 0.0
    vertex 2.5 24.166666666666668 0.0
    vertex 2.5 22.5 0.0
  endloop
endfacet
facet normal 0.0 0.0 -1.0
  outer loop
    vertex 2.5 9.166666666666668 0.0
    vertex 2.5 22.5 0.0
    vertex 2.5 17.5 0.0
  endloop
endfacet
facet normal 0.0 0.0 -1.0
  outer loop
    vertex 2.5 9.166666666666668 0.0
    vertex 2.5 17.5 0.0
    vertex 2.5 15.833333333333336 0.0
  endloop
endfacet
facet normal 0.0 0.0 -1.0
  outer loop
    vertex 2.5 9.166666666666668 0.0
    vertex 2.5 15.833333333333336 0.0
    vertex 2.5 10.833333333333336 0.0
  endloop
endfacet
facet normal 0.0 0.0 -1.0
  outer loop
    vertex 71.0 -0.9999999999999999 0.0
    vertex 2.5 9.166666666666668 0.0
    vertex 26.378149999999998 9.166666666666668 0.0
  endloop
endfacet
facet normal 0.0 0.0 -1.0
  outer loop
    vertex 71.0 -0.9999999999999999 0.0
    vertex 26.378149999999998 9.166666666666668 0.0
    vertex 71.0 41.0 0.0
  endloop
endfacet
facet normal 0.0 0.0 -1.0
  outer loop
    vertex 26.378149999999998 15.833333333333336 0.0
    vertex 2.5 10.833333333333336 0.0
    vertex 2.5 15.833333333333336 0.0
  endloop
endfacet
facet normal 0.0 0.0 -1.0
  outer loop
    vertex 2.5 10.833333333333336 0.0
    vertex 26.378149999999998 15.833333333333336 0.0
    vertex 26.378149999999998 10.833333333333336 0.0
  endloop
endfacet
facet normal 0.0 0.0 -1.0
  outer loop
    vertex 26.378149999999998 22.5 0.0
    vertex 2.5 17.5 0.0
    vertex 2.5 22.5 0.0
  endloop
endfacet
facet normal 0.0 0.0 -1.0
  outer loop
    vertex 2.5 17.5 0.0
    vertex 26.378149999999998 22.5 0.0
    vertex 26.378149999999998 17.5 0.0
  endloop
endfacet
facet normal 0.0 0.0 -1.0
  outer loop
    vertex 26.378149999999998 29.16666666666667 0.0
    vertex 2.5 24.166666666666668 0.0
    vertex 2.5 29.16666666666667 0.0
  endloop
endfacet
facet normal 0.0 0.0 -1.0
  outer loop
    vertex 2.5 24.166666666666668 0.0
    vertex 26.378149999999998 29.16666666666667 0.0
    vertex 26.378149999999998 24.166666666666668 0.0
  endloop
endfacet
facet normal -1.0 0.0 0.0
  outer loop
    vertex -0.9999999999999999 41.0 37.0
    vertex -0.9999999999999999 -0.9999999999999999 0.0
    vertex -0.9999999999999999 -0.9999999999999999 37.0
  endloop
endfacet
facet normal -1.0 0.0 0.0
  outer loop
    vertex -0.9999999999999999 -0.9999999999999999 0.0
    vertex -0.9999999999999999 41.0 37.0
    vertex -0.9999999999999999 41.0 0.0
  endloop
endfacet
facet normal 0.0 1.0 1.4099832412739483e-16
  outer loop
    vertex 0.0 0.0 37.0
    vertex 70.0 2.643718577388654e-15 1.0000000000000009
    vertex 0.0 2.643718577388654e-15 1.0000000000000009
  endloop
endfacet
facet normal 0.0 1.0 1.4099832412739483e-16
  outer loop
    vertex 70.0 2.643718577388654e-15 1.0000000000000009
    vertex 0.0 0.0 37.0
    vertex 70.0 0.0 37.0
  endloop
endfacet
facet normal -1.0 -0.0 -0.0
  outer loop
    vertex 26.378149999999998 24.166666666666668 0.9999999999999974
    vertex 26.378149999999998 22.5 0.0
    vertex 26.378149999999998 22.5 0.9999999999999974
  endloop
endfacet
facet normal -1.0 -0.0 -0.0
  outer loop
    vertex 26.378149999999998 22.5 0.0
    vertex 26.378149999999998 24.166666666666668 0.9999999999999974
    vertex 26.378149999999998 24.166666666666668 0.0
  endloop
endfacet
facet normal 0.0 -1.0 0.0
  outer loop
    vertex 26.378149999999998 30.833333333333332 0.9999999999999908
    vertex 2.5 30.833333333333332 0.0
    vertex 26.378149999999998 30.833333333333332 0.0
  endloop
endfacet
facet normal 0.0 -1.0 0.0
  outer loop
    vertex 2.5 30.833333333333332 0.0
    vertex 26.378149999999998 30.833333333333332 0.9999999999999908
    vertex 2.5 30.833333333333332 0.9999999999999908
  endloop
endfacet
facet normal -1.0 -0.0 -0.0
  outer loop
    vertex 26.378149999999998 17.5 0.999999999999996
    vertex 26.378149999999998 15.833333333333336 0.0
    vertex 26.378149999999998 15.833333333333336 0.999999999999996
  endloop
endfacet
facet normal -1.0 -0.0 -0.0
  outer loop
    vertex 26.378149999999998 15.833333333333336 0.0
    vertex 26.378149999999998 17.5 0.999999999999996
    vertex 26.378149999999998 17.5 0.0
  endloop
endfacet
facet normal 0.0 -1.0 0.0
  outer loop
    vertex 26.378149999999998 17.5 0.999999999999996
    vertex 2.5 17.5 0.0
    vertex 26.378149999999998 17.5 0.0
  endloop
endfacet
facet normal 0.0 -1.0 0.0
  outer loop
    vertex 2.5 17.5 0.0
    vertex 26.378149999999998 17.5 0.999999999999996
    vertex 2.5 17.5 0.999999999999996
  endloop
endfacet
facet normal 1.0 0.0 0.0
  outer loop
    vertex 0.0 2.643718577388654e-15 1.0000000000000009
    vertex 0.0 40.0 37.0
    vertex 0.0 0.0 37.0
  endloop
endfacet
facet normal 1.0 0.0 0.0
  outer loop
    vertex 0.0 40.0 37.0
    vertex 0.0 2.643718577388654e-15 1.0000000000000009
    vertex 0.0 40.0 1.0000000000000067
  endloop
endfacet
facet normal -1.0 0.0 0.0
  outer loop
    vertex 70.0 40.0 37.0
    vertex 70.0 2.643718577388654e-15 1.0000000000000009
    vertex 70.0 0.0 37.0
  endloop
endfacet
facet normal -1.0 0.0 0.0
  outer loop
    vertex 70.0 2.643718577388654e-15 1.0000000000000009
    vertex 70.0 40.0 37.0
    vertex 70.0 40.0 1.0000000000000067
  endloop
endfacet
facet normal 0.0 -1.0 0.0
  outer loop
    vertex 71.0 -0.9999999999999999 37.0
    vertex -0.9999999999999999 -0.9999999999999999 0.0
    vertex 71.0 -0.9999999999999999 0.0
  endloop
endfacet
facet normal 0.0 -1.0 0.0
  outer loop
    vertex -0.9999999999999999 -0.9999999999999999 0.0
    vertex 71.0 -0.9999999999999999 37.0
    vertex -0.9999999999999999 -0.9999999999999999 37.0
  endloop
endfacet
facet normal 0.0 -1.0 0.0
  outer loop
    vertex 26.378149999999998 10.833333333333336 1.000000000000008
    vertex 2.5 10.833333333333336 0.0
    vertex 26.378149999999998 10.833333333333336 0.0
  endloop
endfacet
facet normal 0.0 -1.0 0.0
  outer loop
    vertex 2.5 10.833333333333336 0.0
    vertex 26.378149999999998 10.833333333333336 1.000000000000008
    vertex 2.5 10.833333333333336 1.000000000000008
  endloop
endfacet
facet normal -1.0 -0.0 -0.0
  outer loop
    vertex 26.378149999999998 30.833333333333332 0.9999999999999908
    vertex 26.378149999999998 29.16666666666667 0.0
    vertex 26.378149999999998 29.16666666666667 0.9999999999999908
  endloop
endfacet
facet normal -1.0 -0.0 -0.0
  outer loop
    vertex 26.378149999999998 29.16666666666667 0.0
    vertex 26.378149999999998 30.833333333333332 0.9999999999999908
    vertex 26.378149999999998 30.833333333333332 0.0
  endloop
endfacet
facet normal 0.0 1.0 0.0
  outer loop
    vertex 2.5 9.166666666666668 1.000000000000008
    vertex 26.378149999999998 9.166666666666668 0.0
    vertex 2.5 9.166666666666668 0.0
  endloop
endfacet
facet normal 0.0 1.0 0.0
  outer loop
    vertex 26.378149999999998 9.166666666666668 0.0
    vertex 2.5 9.166666666666668 1.000000000000008
    vertex 26.378149999999998 9.166666666666668 1.000000000000008
  endloop
endfacet
facet normal 0.0 1.0 0.0
  outer loop
    vertex -0.9999999999999999 41.0 37.0
    vertex 71.0 41.0 0.0
    vertex -0.9999999999999999 41.0 0.0
  endloop
endfacet
facet normal 0.0 1.0 0.0
  outer loop
    vertex 71.0 41.0 0.0
    vertex -0.9999999999999999 41.0 37.0
    vertex 71.0 41.0 37.0
  endloop
endfacet
facet normal 1.0 0.0 0.0
  outer loop
    vertex 2.5 10.833333333333336 0.0
    vertex 2.5 9.166666666666668 1.000000000000008
    vertex 2.5 9.166666666666668 0.0
  endloop
endfacet
facet normal 1.0 0.0 0.0
  outer loop
    vertex 2.5 9.166666666666668 1.000000000000008
    vertex 2.5 10.833333333333336 0.0
    vertex 2.5 10.833333333333336 1.000000000000008
  endloop
endfacet
facet normal 1.0 0.0 0.0
  outer loop
    vertex 2.5 24.166666666666668 0.0
    vertex 2.5 22.5 0.9999999999999974
    vertex 2.5 22.5 0.0
  endloop
endfacet
facet normal 1.0 0.0 0.0
  outer loop
    vertex 2.5 22.5 0.9999999999999974
    vertex 2.5 24.166666666666668 0.0
    vertex 2.5 24.166666666666668 0.9999999999999974
  endloop
endfacet
facet normal 0.0 -1.409983241273949e-16 1.0
  outer loop
    vertex 0.0 2.643718577388654e-15 1.0000000000000009
    vertex 2.5 9.166666666666668 1.000000000000008
    vertex 0.0 40.0 1.0000000000000067
  endloop
endfacet
facet normal 0.0 -1.409983241273949e-16 1.0
  outer loop
    vertex 2.5 9.166666666666668 1.000000000000008
    vertex 0.0 2.643718577388654e-15 1.0000000000000009
    vertex 70.0 2.643718577388654e-15 1.0000000000000009
  endloop
endfacet
facet normal 0.0 -1.409983241273949e-16 1.0
  outer loop
    vertex 2.5 9.166666666666668 1.000000000000008
    vertex 70.0 2.643718577388654e-15 1.0000000000000009
    vertex 26.378149999999998 9.166666666666668 1.000000000000008
  endloop
endfacet
facet normal 0.0 -1.409983241273949e-16 1.0
  outer loop
    vertex 26.378149999999998 9.166666666666668 1.000000000000008
    vertex 70.0 2.643718577388654e-15 1.0000000000000009
    vertex 26.378149999999998 10.833333333333336 1.000000000000008
  endloop
endfacet
facet normal 0.0 -1.409983241273949e-16 1.0
  outer loop
    vertex 26.378149999999998 10.833333333333336 1.000000000000008
    vertex 70.0 2.643718577388654e-15 1.0000000000000009
    vertex 26.378149999999998 15.833333333333336 0.999999999999996
  endloop
endfacet
facet normal 0.0 -1.409983241273949e-16 1.0
  outer loop
    vertex 26.378149999999998 15.833333333333336 0.999999999999996
    vertex 70.0 2.643718577388654e-15 1.0000000000000009
    vertex 26.378149999999998 17.5 0.999999999999996
  endloop
endfacet
facet normal 0.0 -1.409983241273949e-16 1.0
  outer loop
    vertex 26.378149999999998 17.5 0.999999999999996
    vertex 70.0 2.643718577388654e-15 1.0000000000000009
    vertex 26.378149999999998 22.5 0.9999999999999974
  endloop
endfacet
facet normal 0.0 -1.409983241273949e-16 1.0
  outer loop
    vertex 26.378149999999998 22.5 0.9999999999999974
    vertex 70.0 2.643718577388654e-15 1.0000000000000009
    vertex 26.378149999999998 24.166666666666668 0.9999999999999974
  endloop
endfacet
facet normal 0.0 -1.409983241273949e-16 1.0
  outer loop
    vertex 26.378149999999998 24.166666666666668 0.9999999999999974
    vertex 70.0 2.643718577388654e-15 1.0000000000000009
    vertex 26.378149999999998 29.16666666666667 0.9999999999999908
  endloop
endfacet
facet normal 0.0 -1.409983241273949e-16 1.0
  outer loop
    vertex 26.378149999999998 29.16666666666667 0.9999999999999908
    vertex 70.0 2.643718577388654e-15 1.0000000000000009
    vertex 26.378149999999998 30.833333333333332 0.9999999999999908
  endloop
endfacet
facet normal 0.0 -1.409983241273949e-16 1.0
  outer loop
    vertex 0.0 40.0 1.0000000000000067
    vertex 2.5 30.833333333333332 0.9999999999999908
    vertex 70.0 40.0 1.0000000000000067
  endloop
endfacet
facet normal 0.0 -1.409983241273949e-16 1.0
  outer loop
    vertex 2.5 30.833333333333332 0.9999999999999908
    vertex 0.0 40.0 1.0000000000000067
    vertex 2.5 9.166666666666668 1.000000000000008
  endloop
endfacet
facet normal 0.0 -1.409983241273949e-16 1.0
  outer loop
    vertex 2.5 30.833333333333332 0.9999999999999908
    vertex 2.5 9.166666666666668 1.000000000000008
    vertex 2.5 10.833333333333336 1.000000000000008
  endloop
endfacet
facet normal 0.0 -1.409983241273949e-16 1.0
  outer loop
    vertex 2.5 30.833333333333332 0.9999999999999908
    vertex 2.5 10.833333333333336 1.000000000000008
    vertex 2.5 15.833333333333336 0.999999999999996
  endloop
endfacet
facet normal 0.0 -1.409983241273949e-16 1.0
  outer loop
    vertex 2.5 30.833333333333332 0.9999999999999908
    vertex 2.5 15.833333333333336 0.999999999999996
    vertex 2.5 17.5 0.999999999999996
  endloop
endfacet
facet normal 0.0 -1.409983241273949e-16 1.0
  outer loop
    vertex 2.5 30.833333333333332 0.9999999999999908
    vertex 2.5 17.5 0.999999999999996
    vertex 2.5 22.5 0.9999999999999974
  endloop
endfacet
facet normal 0.0 -1.409983241273949e-16 1.0
  outer loop
    vertex 2.5 30.833333333333332 0.9999999999999908
    vertex 2.5 22.5 0.9999999999999974
    vertex 2.5 24.166666666666668 0.9999999999999974
  endloop
endfacet
facet normal 0.0 -1.409983241273949e-16 1.0
  outer loop
    vertex 2.5 30.833333333333332 0.9999999999999908
    vertex 2.5 24.166666666666668 0.9999999999999974
    vertex 2.5 29.16666666666667 0.9999999999999908
  endloop
endfacet
facet normal 0.0 -1.409983241273949e-16 1.0
  outer loop
    vertex 70.0 40.0 1.0000000000000067
    vertex 2.5 30.833333333333332 0.9999999999999908
    vertex 26.378149999999998 30.833333333333332 0.9999999999999908
  endloop
endfacet
facet normal 0.0 -1.409983241273949e-16 1.0
  outer loop
    vertex 70.0 40.0 1.0000000000000067
    vertex 26.378149999999998 30.833333333333332 0.9999999999999908
    vertex 70.0 2.643718577388654e-15 1.0000000000000009
  endloop
endfacet
facet normal 0.0 -1.409983241273949e-16 1.0
  outer loop
    vertex 26.378149999999998 24.166666666666668 0.9999999999999974
    vertex 2.5 29.16666666666667 0.9999999999999908
    vertex 2.5 24.166666666666668 0.9999999999999974
  endloop
endfacet
facet normal 0.0 -1.409983241273949e-16 1.0
  outer loop
    vertex 2.5 29.16666666666667 0.9999999999999908
    vertex 26.378149999999998 24.166666666666668 0.9999999999999974
    vertex 26.378149999999998 29.16666666666667 0.9999999999999908
  endloop
endfacet
facet normal 0.0 -1.409983241273949e-16 1.0
  outer loop
    vertex 26.378149999999998 17.5 0.999999999999996
    vertex 2.5 22.5 0.9999999999999974
    vertex 2.5 17.5 0.999999999999996
  endloop
endfacet
facet normal 0.0 -1.409983241273949e-16 1.0
  outer loop
    vertex 2.5 22.5 0.9999999999999974
    vertex 26.378149999999998 17.5 0.999999999999996
    vertex 26.378149999999998 22.5 0.9999999999999974
  endloop
endfacet
facet normal 0.0 -1.409983241273949e-16 1.0
  outer loop
    vertex 26.378149999999998 10.833333333333336 1.000000000000008
    vertex 2.5 15.833333333333336 0.999999999999996
    vertex 2.5 10.833333333333336 1.000000000000008
  endloop
endfacet
facet normal 0.0 -1.409983241273949e-16 1.0
  outer loop
    vertex 2.5 15.833333333333336 0.999999999999996
    vertex 26.378149999999998 10.833333333333336 1.000000000000008
    vertex 26.378149999999998 15.833333333333336 0.999999999999996
  endloop
endfacet
facet normal 1.0 0.0 0.0
  outer loop
    vertex 2.5 17.5 0.0
    vertex 2.5 15.833333333333336 0.999999999999996
    vertex 2.5 15.833333333333336 0.0
  endloop
endfacet
facet normal 1.0 0.0 0.0
  outer loop
    vertex 2.5 15.833333333333336 0.999999999999996
    vertex 2.5 17.5 0.0
    vertex 2.5 17.5 0.999999999999996
  endloop
endfacet
facet normal 0.0 1.0 0.0
  outer loop
    vertex 2.5 15.833333333333336 0.999999999999996
    vertex 26.378149999999998 15.833333333333336 0.0
    vertex 2.5 15.833333333333336 0.0
  endloop
endfacet
facet normal 0.0 1.0 0.0
  outer loop
    vertex 26.378149999999998 15.833333333333336 0.0
    vertex 2.5 15.833333333333336 0.999999999999996
    vertex 26.378149999999998 15.833333333333336 0.999999999999996
  endloop
endfacet
endsolid WirelessAP2
